<svg width="52" height="52" viewBox="0 0 52 52" fill="none" xmlns="http://www.w3.org/2000/svg">
<rect width="52" height="52" rx="26" fill="#04599C"/>
<path fill-rule="evenodd" clip-rule="evenodd" d="M23.429 22.969H27.143V24.819C27.678 23.755 29.05 22.799 31.111 22.799C35.062 22.799 36 24.917 36 28.803V36H32V29.688C32 27.475 31.465 26.227 30.103 26.227C28.214 26.227 27.429 27.572 27.429 29.687V36H23.429V22.969ZM16.57 35.83H20.57V22.799H16.57V35.83ZM21.143 18.55C21.1431 18.8853 21.0767 19.2172 20.9474 19.5266C20.8181 19.8359 20.6287 20.1165 20.39 20.352C19.9064 20.8326 19.2518 21.1017 18.57 21.1C17.8894 21.0995 17.2363 20.8312 16.752 20.353C16.5142 20.1167 16.3254 19.8358 16.1963 19.5264C16.0673 19.217 16.0006 18.8852 16 18.55C16 17.873 16.27 17.225 16.753 16.747C17.2369 16.2682 17.8902 15.9997 18.571 16C19.253 16 19.907 16.269 20.39 16.747C20.872 17.225 21.143 17.873 21.143 18.55Z" fill="white"/>
</svg>
