<svg width="52" height="52" viewBox="0 0 52 52" fill="none" xmlns="http://www.w3.org/2000/svg">
<rect width="52" height="52" rx="26" fill="#04599C"/>
<path d="M36.6732 19.5256C35.9078 19.8647 35.0855 20.0939 34.2211 20.1975C35.113 19.6638 35.7803 18.8238 36.0985 17.8343C35.2605 18.3321 34.3434 18.6824 33.387 18.8702C32.7438 18.1835 31.8919 17.7283 30.9636 17.5754C30.0352 17.4224 29.0824 17.5802 28.2529 18.0243C27.4235 18.4684 26.7638 19.1739 26.3764 20.0313C25.989 20.8887 25.8955 21.85 26.1105 22.766C24.4125 22.6807 22.7515 22.2394 21.2351 21.4707C19.7187 20.7019 18.381 19.6229 17.3086 18.3037C16.942 18.9362 16.7311 19.6695 16.7311 20.4505C16.7307 21.1536 16.9039 21.8459 17.2352 22.466C17.5665 23.0861 18.0458 23.6149 18.6305 24.0053C17.9524 23.9838 17.2893 23.8005 16.6963 23.4709V23.5259C16.6962 24.512 17.0373 25.4678 17.6617 26.231C18.2861 26.9942 19.1553 27.5179 20.1219 27.7132C19.4928 27.8835 18.8334 27.9086 18.1932 27.7866C18.4659 28.6351 18.9971 29.377 19.7125 29.9086C20.4278 30.4402 21.2915 30.7347 22.1825 30.7511C20.6699 31.9385 18.8018 32.5827 16.8787 32.5798C16.5381 32.5799 16.1977 32.56 15.8594 32.5202C17.8114 33.7753 20.0837 34.4414 22.4044 34.4388C30.2602 34.4388 34.5548 27.9323 34.5548 22.2893C34.5548 22.106 34.5502 21.9208 34.542 21.7375C35.3773 21.1334 36.0984 20.3853 36.6714 19.5283L36.6732 19.5256Z" fill="white"/>
</svg>
