<svg width="52" height="53" viewBox="0 0 52 53" fill="none" xmlns="http://www.w3.org/2000/svg">
<rect y="0.969727" width="52" height="52" rx="26" fill="white"/>
<path fill-rule="evenodd" clip-rule="evenodd" d="M23.0506 23.4926H27.3109V25.6148C27.9246 24.3943 29.4984 23.2976 31.8626 23.2976C36.3947 23.2976 37.4707 25.7272 37.4707 30.1848V38.4404H32.8823V31.2C32.8823 28.6614 32.2686 27.2299 30.7063 27.2299C28.5394 27.2299 27.639 28.7727 27.639 31.1988V38.4404H23.0506V23.4926V23.4926ZM15.1827 38.2454H19.771V23.2976H15.1827V38.2454V38.2454ZM20.4283 18.4236C20.4285 18.8082 20.3522 19.189 20.2039 19.5439C20.0556 19.8987 19.8383 20.2206 19.5646 20.4907C19.0098 21.042 18.2589 21.3506 17.4768 21.3487C16.6961 21.3482 15.947 21.0404 15.3914 20.4918C15.1187 20.2208 14.9021 19.8986 14.754 19.5437C14.606 19.1888 14.5295 18.8082 14.5288 18.4236C14.5288 17.647 14.8385 16.9037 15.3926 16.3554C15.9476 15.8061 16.6971 15.4982 17.478 15.4985C18.2603 15.4985 19.0105 15.8071 19.5646 16.3554C20.1175 16.9037 20.4283 17.647 20.4283 18.4236Z" fill="url(#paint0_linear_1311_564)"/>
<defs>
<linearGradient id="paint0_linear_1311_564" x1="32.1297" y1="36.4376" x2="20.5374" y2="15.4985" gradientUnits="userSpaceOnUse">
<stop stop-color="#5EC8F8"/>
<stop offset="1" stop-color="#04599C"/>
</linearGradient>
</defs>
</svg>
