<svg width="52" height="52" viewBox="0 0 52 52" fill="none" xmlns="http://www.w3.org/2000/svg">
<rect width="52" height="52" rx="26" fill="#04599C"/>
<g clip-path="url(#clip0_377_863)">
<path fill-rule="evenodd" clip-rule="evenodd" d="M21.8423 15.9772C22.9175 15.9277 23.2603 15.9167 25.9993 15.9167C28.7383 15.9167 29.0812 15.9286 30.1555 15.9772C31.2299 16.0257 31.9632 16.1972 32.6049 16.4456C33.2768 16.6995 33.8864 17.0964 34.3905 17.6097C34.9039 18.113 35.2999 18.7217 35.5529 19.3945C35.8022 20.0362 35.9727 20.7695 36.0222 21.842C36.0717 22.9191 36.0827 23.2619 36.0827 26C36.0827 28.739 36.0708 29.0818 36.0222 30.1571C35.9736 31.2296 35.8022 31.9629 35.5529 32.6046C35.2998 33.2775 34.9032 33.8872 34.3905 34.3912C33.8864 34.9045 33.2768 35.3005 32.6049 35.5535C31.9632 35.8028 31.2298 35.9733 30.1573 36.0228C29.0812 36.0723 28.7383 36.0833 25.9993 36.0833C23.2603 36.0833 22.9175 36.0714 21.8423 36.0228C20.7698 35.9743 20.0364 35.8028 19.3948 35.5535C18.7219 35.3005 18.1122 34.9038 17.6082 34.3912C17.0952 33.8876 16.6982 33.2782 16.4449 32.6055C16.1965 31.9638 16.026 31.2305 15.9765 30.158C15.927 29.0809 15.916 28.7381 15.916 26C15.916 23.261 15.9279 22.9182 15.9765 21.8438C16.0251 20.7695 16.1965 20.0362 16.4449 19.3945C16.6986 18.7217 17.0959 18.1124 17.6091 17.6088C18.1124 17.096 18.7214 16.699 19.3938 16.4456C20.0355 16.1972 20.7688 16.0267 21.8413 15.9772H21.8423ZM30.0739 17.7922C29.0106 17.7436 28.6916 17.7335 25.9993 17.7335C23.3071 17.7335 22.9881 17.7436 21.9248 17.7922C20.9412 17.8371 20.4077 18.0012 20.052 18.1396C19.5818 18.3229 19.2453 18.5402 18.8924 18.8931C18.5579 19.2185 18.3004 19.6148 18.1389 20.0527C18.0005 20.4083 17.8364 20.9418 17.7915 21.9254C17.7429 22.9887 17.7328 23.3077 17.7328 26C17.7328 28.6923 17.7429 29.0113 17.7915 30.0746C17.8364 31.0582 18.0005 31.5917 18.1389 31.9473C18.3003 32.3846 18.5578 32.7815 18.8924 33.1069C19.2178 33.4415 19.6148 33.6991 20.052 33.8604C20.4077 33.9988 20.9412 34.1629 21.9248 34.2078C22.9881 34.2564 23.3062 34.2665 25.9993 34.2665C28.6925 34.2665 29.0106 34.2564 30.0739 34.2078C31.0575 34.1629 31.591 33.9988 31.9467 33.8604C32.4169 33.6771 32.7534 33.4598 33.1063 33.1069C33.4409 32.7815 33.6984 32.3846 33.8598 31.9473C33.9982 31.5917 34.1623 31.0582 34.2072 30.0746C34.2558 29.0113 34.2659 28.6923 34.2659 26C34.2659 23.3077 34.2558 22.9887 34.2072 21.9254C34.1623 20.9418 33.9982 20.4083 33.8598 20.0527C33.6764 19.5824 33.4592 19.246 33.1063 18.8931C32.7808 18.5586 32.3846 18.3011 31.9467 18.1396C31.591 18.0012 31.0575 17.8371 30.0739 17.7922ZM24.7114 29.1084C25.4307 29.4078 26.2316 29.4482 26.9774 29.2227C27.7231 28.9973 28.3675 28.5198 28.8003 27.8721C29.2332 27.2243 29.4277 26.4463 29.3507 25.671C29.2737 24.8957 28.9299 24.1712 28.3781 23.6212C28.0263 23.2697 27.601 23.0005 27.1327 22.8331C26.6643 22.6656 26.1647 22.6041 25.6698 22.6529C25.1749 22.7017 24.6969 22.8597 24.2703 23.1154C23.8438 23.3711 23.4792 23.7182 23.2029 24.1317C22.9266 24.5452 22.7454 25.0148 22.6723 25.5068C22.5993 25.9987 22.6362 26.5008 22.7805 26.9767C22.9248 27.4527 23.1728 27.8907 23.5067 28.2593C23.8406 28.6279 24.252 28.9179 24.7114 29.1084ZM22.3345 22.3352C22.8158 21.8539 23.3871 21.4721 24.016 21.2117C24.6448 20.9512 25.3187 20.8171 25.9993 20.8171C26.68 20.8171 27.3539 20.9512 27.9827 21.2117C28.6116 21.4721 29.1829 21.8539 29.6642 22.3352C30.1455 22.8164 30.5272 23.3878 30.7877 24.0166C31.0481 24.6454 31.1822 25.3194 31.1822 26C31.1822 26.6806 31.0481 27.3546 30.7877 27.9834C30.5272 28.6122 30.1455 29.1836 29.6642 29.6648C28.6922 30.6368 27.3739 31.1829 25.9993 31.1829C24.6248 31.1829 23.3065 30.6368 22.3345 29.6648C21.3625 28.6929 20.8165 27.3746 20.8165 26C20.8165 24.6254 21.3625 23.3071 22.3345 22.3352ZM32.3317 21.589C32.4509 21.4765 32.5464 21.3412 32.6125 21.1911C32.6785 21.0411 32.7138 20.8793 32.7162 20.7154C32.7185 20.5514 32.688 20.3887 32.6264 20.2367C32.5647 20.0848 32.4732 19.9468 32.3573 19.8309C32.2414 19.7149 32.1034 19.6234 31.9514 19.5618C31.7995 19.5002 31.6368 19.4696 31.4728 19.472C31.3089 19.4744 31.1471 19.5097 30.997 19.5757C30.847 19.6418 30.7117 19.7372 30.5992 19.8565C30.3804 20.0884 30.2606 20.3965 30.2652 20.7154C30.2699 21.0342 30.3986 21.3386 30.6241 21.5641C30.8495 21.7896 31.154 21.9183 31.4728 21.9229C31.7917 21.9276 32.0997 21.8078 32.3317 21.589Z" fill="white"/>
</g>
<defs>
<clipPath id="clip0_377_863">
<rect width="22" height="22" fill="white" transform="translate(15 15)"/>
</clipPath>
</defs>
</svg>
