<svg width="52" height="53" viewBox="0 0 52 53" fill="none" xmlns="http://www.w3.org/2000/svg">
<rect y="0.969727" width="52" height="52" rx="26" fill="white"/>
<path d="M25.9966 22.8042C23.7029 22.8042 21.831 24.6761 21.831 26.9698C21.831 29.2636 23.7029 31.1355 25.9966 31.1355C28.2904 31.1355 30.1623 29.2636 30.1623 26.9698C30.1623 24.6761 28.2904 22.8042 25.9966 22.8042ZM38.4904 26.9698C38.4904 25.2448 38.506 23.5355 38.4091 21.8136C38.3123 19.8136 37.856 18.0386 36.3935 16.5761C34.9279 15.1105 33.156 14.6573 31.156 14.5605C29.431 14.4636 27.7216 14.4792 25.9998 14.4792C24.2748 14.4792 22.5654 14.4636 20.8435 14.5605C18.8435 14.6573 17.0685 15.1136 15.606 16.5761C14.1404 18.0417 13.6873 19.8136 13.5904 21.8136C13.4935 23.5386 13.5091 25.248 13.5091 26.9698C13.5091 28.6917 13.4935 30.4042 13.5904 32.1261C13.6873 34.1261 14.1435 35.9011 15.606 37.3636C17.0716 38.8292 18.8435 39.2823 20.8435 39.3792C22.5685 39.4761 24.2779 39.4605 25.9998 39.4605C27.7248 39.4605 29.4341 39.4761 31.156 39.3792C33.156 39.2823 34.931 38.8261 36.3935 37.3636C37.8591 35.8979 38.3123 34.1261 38.4091 32.1261C38.5091 30.4042 38.4904 28.6948 38.4904 26.9698ZM25.9966 33.3792C22.4498 33.3792 19.5873 30.5167 19.5873 26.9698C19.5873 23.423 22.4498 20.5605 25.9966 20.5605C29.5435 20.5605 32.406 23.423 32.406 26.9698C32.406 30.5167 29.5435 33.3792 25.9966 33.3792ZM32.6685 21.7948C31.8404 21.7948 31.1716 21.1261 31.1716 20.298C31.1716 19.4698 31.8404 18.8011 32.6685 18.8011C33.4966 18.8011 34.1654 19.4698 34.1654 20.298C34.1656 20.4946 34.1271 20.6894 34.0519 20.8711C33.9768 21.0528 33.8666 21.2179 33.7275 21.357C33.5885 21.496 33.4234 21.6062 33.2416 21.6814C33.0599 21.7565 32.8652 21.7951 32.6685 21.7948Z" fill="url(#paint0_linear_193_415)"/>
<defs>
<linearGradient id="paint0_linear_193_415" x1="32.6755" y1="37.2803" x2="20.0519" y2="14.4781" gradientUnits="userSpaceOnUse">
<stop stop-color="#5EC8F8"/>
<stop offset="1" stop-color="#04599C"/>
</linearGradient>
</defs>
</svg>
