<svg width="52" height="52" viewBox="0 0 52 52" fill="none" xmlns="http://www.w3.org/2000/svg">
<path d="M44.3891 37.1367L35.5816 29.1287C35.1653 28.7503 34.6182 28.5484 34.0559 28.5658C33.4935 28.5832 32.9599 28.8184 32.5678 29.2218L27.3829 34.554C26.1349 34.3157 23.6259 33.5335 21.0433 30.9573C18.4606 28.3725 17.6784 25.857 17.4466 24.6177L22.7744 19.4307C23.1783 19.0388 23.4139 18.5051 23.4313 17.9426C23.4487 17.3801 23.2465 16.8329 22.8676 16.4168L14.8618 7.61149C14.4827 7.1941 13.9558 6.94091 13.3931 6.90572C12.8304 6.87052 12.2761 7.05608 11.8479 7.42299L7.14628 11.4552C6.77169 11.8311 6.5481 12.3315 6.51794 12.8613C6.48544 13.403 5.86578 26.234 15.8151 36.1877C24.4948 44.8652 35.3671 45.5 38.3614 45.5C38.7991 45.5 39.0678 45.487 39.1393 45.4827C39.6691 45.453 40.1691 45.2284 40.5433 44.8522L44.5733 40.1483C44.9416 39.7216 45.1286 39.1677 45.0942 38.605C45.0597 38.0423 44.8067 37.5154 44.3891 37.1367Z" fill="white"/>
</svg>
