<svg width="24" height="24" viewBox="0 0 24 24" fill="none" xmlns="http://www.w3.org/2000/svg">
<g clip-path="url(#clip0_193_375)">
<path d="M18.3264 19.7502C18.726 19.3746 18.985 18.8734 19.0602 18.3302C19.1353 17.7869 19.0221 17.2343 18.7395 16.7643L18.629 16.598L17.4975 15.0274C17.1541 14.5507 16.6781 14.1855 16.1287 13.9772C15.5793 13.769 14.9808 13.7268 14.4077 13.8559L14.1907 13.9149L12.5537 14.4151C12.256 14.5036 11.6245 13.9437 10.8083 12.5302C10.0739 11.2582 9.85831 10.4437 9.97725 10.1729L10.0031 10.1282L10.0452 10.0791L11.9268 8.32489C12.18 8.08927 12.3598 7.78572 12.445 7.45055C12.5301 7.11539 12.5169 6.76279 12.4069 6.43493L12.342 6.27136L11.2025 3.73313C10.9791 3.23565 10.593 2.82908 10.1076 2.58037C9.62234 2.33166 9.0668 2.25564 8.53252 2.36483L8.32837 2.41602L7.46901 2.67088C6.69798 2.90012 6.009 3.34596 5.48398 3.95537C4.95896 4.56479 4.61998 5.31216 4.50735 6.10862C4.15695 8.58753 4.95406 11.4837 6.87037 14.8029C8.79216 18.1295 10.905 20.2708 13.2344 21.2042C13.9386 21.4862 14.706 21.5722 15.4552 21.4532C16.2044 21.3341 16.9073 21.0143 17.4894 20.5279L17.6717 20.3657L18.3264 19.7502Z" fill="url(#paint0_linear_193_375)"/>
</g>
<defs>
<linearGradient id="paint0_linear_193_375" x1="6.91886" y1="4.67431" x2="14.4684" y2="21.5947" gradientUnits="userSpaceOnUse">
<stop stop-color="#5EC8F8"/>
<stop offset="1" stop-color="#04599C"/>
</linearGradient>
<clipPath id="clip0_193_375">
<rect width="24" height="24" fill="white" transform="matrix(1 0 0 -1 0 24)"/>
</clipPath>
</defs>
</svg>
