<svg width="120" height="120" viewBox="0 0 120 120" fill="none" xmlns="http://www.w3.org/2000/svg">
<path d="M45 56.25H22.9125C23.6094 51.6088 25.2667 47.1639 27.7785 43.1994C30.2902 39.2348 33.6012 35.8377 37.5 33.225L44.2125 28.725L40.0875 22.5L33.375 27C27.7248 30.7653 23.0914 35.8671 19.886 41.8527C16.6806 47.8383 15.0023 54.5226 15 61.3125V86.25C15 88.2391 15.7902 90.1468 17.1967 91.5533C18.6032 92.9598 20.5109 93.75 22.5 93.75H45C46.9891 93.75 48.8968 92.9598 50.3033 91.5533C51.7098 90.1468 52.5 88.2391 52.5 86.25V63.75C52.5 61.7609 51.7098 59.8532 50.3033 58.4467C48.8968 57.0402 46.9891 56.25 45 56.25ZM97.5 56.25H75.4125C76.1094 51.6088 77.7667 47.1639 80.2785 43.1994C82.7902 39.2348 86.1012 35.8377 90 33.225L96.7125 28.725L92.625 22.5L85.875 27C80.2248 30.7653 75.5914 35.8671 72.386 41.8527C69.1806 47.8383 67.5023 54.5226 67.5 61.3125V86.25C67.5 88.2391 68.2902 90.1468 69.6967 91.5533C71.1032 92.9598 73.0109 93.75 75 93.75H97.5C99.4891 93.75 101.397 92.9598 102.803 91.5533C104.21 90.1468 105 88.2391 105 86.25V63.75C105 61.7609 104.21 59.8532 102.803 58.4467C101.397 57.0402 99.4891 56.25 97.5 56.25Z" fill="#04599C"/>
</svg>
