<svg width="24" height="24" viewBox="0 0 24 24" fill="none" xmlns="http://www.w3.org/2000/svg">
<path fill-rule="evenodd" clip-rule="evenodd" d="M15.7537 4.30349C12.348 2.94121 8.21006 3.71465 5.79997 6.3692L5.7998 6.36939C4.61469 7.67404 3.87141 9.31934 3.67578 11.071C3.48015 12.8227 3.84215 14.5914 4.71024 16.1254C5.57833 17.6593 6.90824 18.8803 8.51063 19.6145C10.113 20.3486 11.9062 20.5585 13.6348 20.2143L13.6351 20.2142C17.1213 19.5209 19.7053 16.375 20.3945 12.9289C20.5028 12.3873 21.0297 12.0361 21.5712 12.1444C22.1128 12.2527 22.464 12.7796 22.3557 13.3211C21.5449 17.3749 18.474 21.2909 14.0254 22.1757C11.884 22.6022 9.66262 22.3422 7.67757 21.4327C5.69253 20.5232 4.04502 19.0107 2.96963 17.1104C1.89424 15.2101 1.44579 13.019 1.68814 10.849C1.93047 8.67913 2.8512 6.641 4.31922 5.02481M4.31939 5.02463C7.35132 1.68534 12.4022 0.808837 16.4965 2.44653C17.0093 2.65164 17.2587 3.23362 17.0536 3.7464C16.8485 4.25918 16.2665 4.5086 15.7537 4.30349" fill="#04599C"/>
<path fill-rule="evenodd" clip-rule="evenodd" d="M22.0533 4.89019C22.4591 5.2648 22.4844 5.89746 22.1098 6.30328L13.1098 16.0533C12.9252 16.2533 12.6671 16.3694 12.395 16.3748C12.1229 16.3802 11.8603 16.2745 11.6679 16.0821L7.91789 12.3321C7.52737 11.9416 7.52737 11.3084 7.91789 10.9179C8.30842 10.5274 8.94158 10.5274 9.33211 10.9179L12.3462 13.9319L20.6402 4.94672C21.0148 4.5409 21.6475 4.51559 22.0533 4.89019Z" fill="#04599C"/>
</svg>
