<svg width="52" height="52" viewBox="0 0 52 52" fill="none" xmlns="http://www.w3.org/2000/svg">
<path d="M26.0007 45.4999C23.264 43.1656 20.7274 40.6065 18.4173 37.8494C14.9507 33.7089 10.834 27.5426 10.834 21.6666C10.8325 18.6657 11.7213 15.7317 13.3878 13.2361C15.0544 10.7405 17.4238 8.79541 20.1963 7.64694C22.9688 6.49848 26.0196 6.19829 28.9627 6.78438C31.9059 7.37047 34.609 8.81648 36.73 10.9394C38.1421 12.3453 39.2614 14.0172 40.0231 15.8586C40.7847 17.6999 41.1737 19.674 41.1673 21.6666C41.1673 27.5426 37.0507 33.7089 33.584 37.8494C31.2739 40.6065 28.7373 43.1656 26.0007 45.4999ZM26.0007 15.1666C24.2767 15.1666 22.6234 15.8514 21.4045 17.0704C20.1855 18.2894 19.5007 19.9427 19.5007 21.6666C19.5007 23.3905 20.1855 25.0438 21.4045 26.2628C22.6234 27.4818 24.2767 28.1666 26.0007 28.1666C27.7246 28.1666 29.3779 27.4818 30.5968 26.2628C31.8158 25.0438 32.5007 23.3905 32.5007 21.6666C32.5007 19.9427 31.8158 18.2894 30.5968 17.0704C29.3779 15.8514 27.7246 15.1666 26.0007 15.1666Z" fill="white"/>
</svg>
