<svg width="100" height="100" viewBox="0 0 100 100" fill="none" xmlns="http://www.w3.org/2000/svg">
<path d="M61.0026 61.1425V52.7853C61.0026 49.83 59.8436 46.9957 57.7808 44.906C55.7179 42.8163 52.92 41.6423 50.0027 41.6423C47.0853 41.6423 44.2874 42.8163 42.2246 44.906C40.1617 46.9957 39.0028 49.83 39.0028 52.7853V61.1425C37.5445 61.144 36.1464 61.7315 35.1153 62.776C34.0842 63.8206 33.5043 65.2368 33.5028 66.714V83.4285C33.5043 84.9057 34.0842 86.322 35.1153 87.3665C36.1464 88.411 37.5445 88.9985 39.0028 89H61.0026C62.4608 88.9985 63.8589 88.411 64.89 87.3665C65.9211 86.322 66.501 84.9057 66.5025 83.4285V66.714C66.501 65.2368 65.9211 63.8206 64.89 62.776C63.8589 61.7315 62.4608 61.144 61.0026 61.1425V61.1425ZM44.5027 52.7853C44.5027 51.3077 45.0822 49.8905 46.1136 48.8457C47.145 47.8008 48.544 47.2138 50.0027 47.2138C51.4613 47.2138 52.8603 47.8008 53.8917 48.8457C54.9231 49.8905 55.5026 51.3077 55.5026 52.7853V61.1425H44.5027V52.7853ZM39.0028 83.4285V66.714H61.0026L61.0053 83.4285H39.0028Z" fill="url(#paint0_linear_278_471)"/>
<path d="M77.0322 33.6054C75.9907 28.1331 73.354 23.1027 69.4624 19.1635C65.5708 15.2242 60.603 12.557 55.2002 11.5061C51.6514 10.8114 48.0022 10.8321 44.4612 11.567C40.9203 12.3018 37.5571 13.7365 34.5638 15.7889C31.5706 17.8413 29.006 20.4712 27.0167 23.5283C25.0275 26.5854 23.6525 30.0097 22.9705 33.6054C17.9011 34.5311 13.3569 37.3444 10.2315 41.4923C7.10605 45.6401 5.62545 50.8223 6.08081 56.02C6.53616 61.2177 8.89453 66.0548 12.6922 69.5802C16.4899 73.1056 21.4521 75.0643 26.6032 75.0712H28.0029V69.4997H26.6142C22.838 69.4927 19.2009 68.0555 16.4173 65.4705C13.6338 62.8855 11.9051 59.3395 11.5709 55.5292C11.2366 51.7189 12.321 47.9197 14.611 44.878C16.9009 41.8363 20.2309 39.7719 23.9467 39.0905L27.6592 38.408L28.3714 34.6612C29.3394 29.5689 32.0281 24.9772 35.9754 21.675C39.9227 18.3729 44.8821 16.5667 50.0014 16.5667C55.1206 16.5667 60.08 18.3729 64.0273 21.675C67.9746 24.9772 70.6633 29.5689 71.6313 34.6612L72.3435 38.408L76.0533 39.0905C79.7679 39.7717 83.0971 41.8349 85.3871 44.8752C87.677 47.9154 88.7623 51.713 88.4299 55.5223C88.0974 59.3316 86.3713 62.8774 83.5904 65.4635C80.8094 68.0497 77.1746 69.4893 73.3995 69.4997H72.0025V75.0712H73.3995C78.5504 75.0636 83.5121 73.1044 87.3093 69.5788C91.1065 66.0531 93.4643 61.2161 93.9193 56.0186C94.3743 50.8211 92.8935 45.6392 89.7681 41.4917C86.6427 37.3442 82.0987 34.5311 77.0295 33.6054H77.0322Z" fill="url(#paint1_linear_278_471)"/>
<defs>
<linearGradient id="paint0_linear_278_471" x1="58.82" y1="84.8656" x2="31.3155" y2="50.2469" gradientUnits="userSpaceOnUse">
<stop stop-color="#5EC8F8"/>
<stop offset="1" stop-color="#04599C"/>
</linearGradient>
<linearGradient id="paint1_linear_278_471" x1="73.5132" y1="69.4777" x2="47.0215" y2="3.75501" gradientUnits="userSpaceOnUse">
<stop stop-color="#5EC8F8"/>
<stop offset="1" stop-color="#04599C"/>
</linearGradient>
</defs>
</svg>
