<svg xmlns="http://www.w3.org/2000/svg" xmlns:xlink="http://www.w3.org/1999/xlink" width="474.88" height="148.65" viewBox="0 0 474.88 148.65"><defs><style>.cls-1,.cls-6{fill:#04599c;}.cls-1{fill-rule:evenodd;}.cls-2{fill:url(#linear-gradient);}.cls-3{fill:url(#linear-gradient-2);}.cls-4{fill:url(#linear-gradient-3);}.cls-5{fill:url(#linear-gradient-4);}</style><linearGradient id="linear-gradient" x1="34.8" y1="59.77" x2="-15.14" y2="157.16" gradientTransform="matrix(1, 0, 0, -1, 0, 149.3)" gradientUnits="userSpaceOnUse"><stop offset="0" stop-color="#5fc9f8"/><stop offset="1" stop-color="#04599c"/></linearGradient><linearGradient id="linear-gradient-2" x1="77.14" y1="113.27" x2="-7.79" y2="109.9" gradientTransform="matrix(1, 0, 0, -1, 0, 149.3)" gradientUnits="userSpaceOnUse"><stop offset="0" stop-color="#5ec8f8"/><stop offset="1" stop-color="#04599c"/></linearGradient><linearGradient id="linear-gradient-3" x1="73.5" y1="23.22" x2="182.82" y2="28.73" xlink:href="#linear-gradient"/><linearGradient id="linear-gradient-4" x1="98.63" y1="86.65" x2="138.22" y2="11.44" xlink:href="#linear-gradient-2"/></defs><title>dk-color</title><g id="Layer_2" data-name="Layer 2"><g id="Layer_1-2" data-name="Layer 1"><path class="cls-1" d="M19.64,15.33l80.92-3.95L91.43,27.25l-63.71,4L56.43,87.87l-9.59,16.61L9.73,32.38h0a11.67,11.67,0,0,1,10-17.05Z"/><path class="cls-2" d="M1.29,35.85c3.72-6.41,7.11-12.72,9.48-16A13.9,13.9,0,0,0,8.52,27.5,11.31,11.31,0,0,0,10,32.37C23.31,58.42,32.2,75.88,46.85,104.46l-8.52,14.75L1,44.8A9.44,9.44,0,0,1,1.29,35.85Z"/><path class="cls-3" d="M35.15,45.92,27.66,31.18l63.77-3.94L82.89,42Z"/><path class="cls-1" d="M145.33,102.07,108.26,30,99.09,45.88,127.51,103l-63.39,3.48-9.58,16.62,81-4,0,0A11.7,11.7,0,0,0,146.16,104a10.85,10.85,0,0,0-.83-2Z"/><path class="cls-4" d="M136.75,128.22c3.69-6.42,7.45-12.52,9.09-16.19a13.94,13.94,0,0,1-5.48,5.76,11.33,11.33,0,0,1-4.93,1.19c-29.24,1.48-48.81,2.52-80.88,4.14l-8.5,14.76,83.1-4.91A9.43,9.43,0,0,0,136.75,128.22Z"/><path class="cls-5" d="M111.09,104l16.5-.9L99.09,45.88,90.56,60.67Z"/><path class="cls-6" d="M468.11,130.19a6.78,6.78,0,1,0-6.77-6.77A6.78,6.78,0,0,0,468.11,130.19Z"/><path class="cls-6" d="M187.42,62.78h-.61a8.36,8.36,0,0,1-1.85,3.7,14.51,14.51,0,0,1-3.08,3.08,16.79,16.79,0,0,1-4,2.15,11.85,11.85,0,0,1-4.61.62A17.43,17.43,0,0,1,165,70.48a16.49,16.49,0,0,1-6.16-5.23,26,26,0,0,1-3.69-8.31,43.24,43.24,0,0,1-1.23-11.39,43.24,43.24,0,0,1,1.23-11.39,26,26,0,0,1,3.69-8.31A13.73,13.73,0,0,1,165,20.93a18.33,18.33,0,0,1,8.31-1.85,20.72,20.72,0,0,1,4.61.62,16.45,16.45,0,0,1,4,2.15A14.28,14.28,0,0,1,185,24.93a9.47,9.47,0,0,1,1.85,4h.61V0h14.16V71.4H187.42Zm-5.54-2.46A9.47,9.47,0,0,0,185,58.78a3.8,3.8,0,0,0,1.85-2.46,5.1,5.1,0,0,0,.61-3.08V38.16a9,9,0,0,0-.61-3.07A17.05,17.05,0,0,0,185,32.62a9.67,9.67,0,0,0-3.08-1.54,15.81,15.81,0,0,0-3.69-.61,9,9,0,0,0-6.77,2.77c-1.85,1.85-2.77,4.31-2.77,7.69v8.93a10.69,10.69,0,0,0,2.77,7.69,9,9,0,0,0,6.77,2.77A5.05,5.05,0,0,0,181.88,60.32Z"/><path class="cls-6" d="M207.43,71.09V20.62h14.16V31.7h.61a15.71,15.71,0,0,1,1.54-4,14,14,0,0,1,2.46-3.39,15.9,15.9,0,0,1,3.7-2.46,13.31,13.31,0,0,1,5.23-.92h2.46V34.16H233.9a29.69,29.69,0,0,0-5.54.31,15.5,15.5,0,0,0-4,1.23,6.33,6.33,0,0,0-2.47,2.46,6.65,6.65,0,0,0-.92,3.7V71.4H207.43Z"/><path class="cls-6" d="M255.13,70.48a22.69,22.69,0,0,1-7.69-5.23,18.26,18.26,0,0,1-4.62-8.31,42.06,42.06,0,0,1-1.54-11.08,38,38,0,0,1,1.54-10.77,18.16,18.16,0,0,1,4.62-8.31,20.27,20.27,0,0,1,7.38-5.23A27,27,0,0,1,265,19.7a22.85,22.85,0,0,1,18.16,7.69,21,21,0,0,1,4,8.31,34.74,34.74,0,0,1,1.23,9.85v4.31H255.75v.92a24.39,24.39,0,0,0,.61,4.62,6.48,6.48,0,0,0,2.16,3.39,12.82,12.82,0,0,0,3.38,2.15,11.67,11.67,0,0,0,4.93.92A13.12,13.12,0,0,0,274.21,60a35.25,35.25,0,0,0,5.24-4.31l7.07,8.92c-2.15,2.77-5.23,4.62-8.92,6.16a31.34,31.34,0,0,1-12.31,2.15A48.91,48.91,0,0,1,255.13,70.48Zm6.16-39.7a11,11,0,0,0-3.08,2.15,7.45,7.45,0,0,0-1.85,3.39,18.58,18.58,0,0,0-.61,4.31v.92H273.6v-.92a18,18,0,0,0-.62-4.31,11.44,11.44,0,0,0-1.54-3.39,6.65,6.65,0,0,0-2.77-2.15c-.92-.62-2.15-.62-3.69-.62A5.31,5.31,0,0,0,261.29,30.78Z"/><path class="cls-6" d="M335.15,60V37.86q0-9.24-5.54-13.85c-3.69-3.08-8.92-4.62-16.31-4.62a28.85,28.85,0,0,0-12.62,2.46A21.29,21.29,0,0,0,293,28.93l8.61,7.7a26.9,26.9,0,0,1,4-4.31,11,11,0,0,1,6.77-1.85c3.07,0,5.23.62,6.46,2.16a8.85,8.85,0,0,1,1.85,5.84v3.08H313a38.17,38.17,0,0,0-8.92.92,15.28,15.28,0,0,0-6.77,3.08A13.1,13.1,0,0,0,293,50.48a15.94,15.94,0,0,0-1.54,7.08c0,4.3,1.23,8,4,10.77s6.46,4,11.69,4A20.39,20.39,0,0,0,317,69.87a12.78,12.78,0,0,0,5.24-7.39h.61a7.19,7.19,0,0,0,.62,2.46,10.55,10.55,0,0,0,2.15,3.69,11,11,0,0,0,3.08,2.16,15.3,15.3,0,0,0,3.69.61h8V60.32h-5.23ZM321,56a9,9,0,0,1-.61,3.07c-.31.93-1.23,1.54-1.85,2.16a11,11,0,0,1-2.77,1.23,11.41,11.41,0,0,1-3.38.31,7.84,7.84,0,0,1-4.93-1.23,4.58,4.58,0,0,1-1.84-4V56a4.65,4.65,0,0,1,2.15-4.31,11.28,11.28,0,0,1,6.16-1.54h6.77V56Z"/><path class="cls-6" d="M343.77,71.1V20.62h14.16v8.62h.61a8.43,8.43,0,0,1,1.85-3.69,27.58,27.58,0,0,1,2.77-3.08,12.19,12.19,0,0,1,4-2.15,12.68,12.68,0,0,1,4.92-.93A16.91,16.91,0,0,1,381,21.85a13.89,13.89,0,0,1,5.23,7.7h.31a13.67,13.67,0,0,1,5.54-7.08,17.75,17.75,0,0,1,9.85-3.08c4.92,0,8.61,1.85,11.08,5.23s4,8.31,4,14.78V71.1H402.86V40.63c0-3.39-.61-5.85-1.54-7.39a6.15,6.15,0,0,0-5.23-2.46,10.45,10.45,0,0,0-3.08.31,6.2,6.2,0,0,0-2.77,1.54,4.7,4.7,0,0,0-1.84,2.46c-.62.92-.62,1.84-.62,3.38V71.1H373.62V40.63q0-5.09-1.84-7.39a6.16,6.16,0,0,0-5.24-2.46,10.35,10.35,0,0,0-3.07.31,6.1,6.1,0,0,0-2.77,1.54,4.72,4.72,0,0,0-1.85,2.46c-.62.92-.62,1.84-.62,3.38V71.1Z"/><path class="cls-6" d="M187.42,78.48h14.16V99.72h.62l6.15-9.24,10.16-12H234.2L217.58,97.87,236.36,129H219.43L208,107.41l-6.46,7.08v14.16H187.42Z"/><path class="cls-6" d="M279.75,118.18V96q0-9.22-5.54-13.85c-3.69-3.07-8.92-4.61-16.31-4.61A28.7,28.7,0,0,0,245.28,80a21.36,21.36,0,0,0-7.69,7.08l8.62,7.69a26.39,26.39,0,0,1,4-4.31A11.06,11.06,0,0,1,257,88.64c3.08,0,5.23.61,6.46,2.15a8.89,8.89,0,0,1,1.85,5.85v3.08h-7.7a37.64,37.64,0,0,0-8.92.92,15.17,15.17,0,0,0-6.77,3.08,13.07,13.07,0,0,0-4.31,4.92,16.11,16.11,0,0,0-1.54,7.08c0,4.31,1.23,8,4,10.77s6.46,4,11.7,4a20.26,20.26,0,0,0,9.84-2.46,12.78,12.78,0,0,0,5.24-7.39,7.22,7.22,0,0,0,.61,2.47,10.56,10.56,0,0,0,2.16,3.69,10.92,10.92,0,0,0,3.07,2.15,7.8,7.8,0,0,0,3.7.62h8V118.49h-4.62Zm-14.15-4.31A9.05,9.05,0,0,1,265,117a4.16,4.16,0,0,1-1.85,2.16,11,11,0,0,1-2.77,1.23,11.78,11.78,0,0,1-3.38.3,7.79,7.79,0,0,1-4.93-1.23,4.56,4.56,0,0,1-1.84-4v-1.54a4.67,4.67,0,0,1,2.15-4.31,11.37,11.37,0,0,1,6.16-1.53h6.77v5.84Z"/><path class="cls-6" d="M297,128a23.73,23.73,0,0,1-8.93-6.77l8.31-8.62c1.85,1.85,3.7,3.7,5.85,4.62a14.64,14.64,0,0,0,7.39,1.85c2.77,0,4.92-.31,5.84-1.24a3.91,3.91,0,0,0,1.54-3.38,3,3,0,0,0-1.23-2.77,6.8,6.8,0,0,0-4-1.23l-4.92-.92a23.76,23.76,0,0,1-7.39-1.85,16.77,16.77,0,0,1-5.23-3.08,12.22,12.22,0,0,1-3.08-4.62,18.35,18.35,0,0,1-.92-6.15,16.65,16.65,0,0,1,1.54-6.77,13.1,13.1,0,0,1,4-5.23,19.66,19.66,0,0,1,6.15-3.39,23,23,0,0,1,8-1.23,47.69,47.69,0,0,1,7.08.61,29.45,29.45,0,0,1,5.54,1.54,19.51,19.51,0,0,1,4.31,2.47,38.62,38.62,0,0,1,4,3.38l-8.31,8.31c-.92-.61-1.54-1.54-2.46-2.15a12.39,12.39,0,0,0-2.77-1.54,11.57,11.57,0,0,0-3.08-.93c-.92,0-2.15-.3-3.07-.3-2.47,0-4.31.3-5.24,1.23A4.27,4.27,0,0,0,304.37,93,3.54,3.54,0,0,0,305.61,96a8.32,8.32,0,0,0,4.3,1.54l5.54.93a23.68,23.68,0,0,1,12.62,4.92c2.77,2.46,4.31,5.85,4.31,10.46a16.61,16.61,0,0,1-1.54,6.77,14,14,0,0,1-4.31,5.24,17.41,17.41,0,0,1-6.77,3.38,27,27,0,0,1-8.92,1.23C304.37,130.19,300.37,129.57,297,128Z"/><path class="cls-6" d="M334.84,78.48H349V87.1h.62a9.46,9.46,0,0,1,1.84-4A14.74,14.74,0,0,1,354.54,80a16.82,16.82,0,0,1,4-2.16,12.08,12.08,0,0,1,4.62-.61,17.34,17.34,0,0,1,8.31,1.85A18.91,18.91,0,0,1,377.62,84a26,26,0,0,1,3.7,8.31,43.24,43.24,0,0,1,1.23,11.39,43.24,43.24,0,0,1-1.23,11.39,26.08,26.08,0,0,1-3.7,8.3,16.92,16.92,0,0,1-6.15,5.24,18.32,18.32,0,0,1-8.31,1.84,23.61,23.61,0,0,1-4.62-.61,16.47,16.47,0,0,1-4-2.16,14.7,14.7,0,0,1-3.08-3.07,10.41,10.41,0,0,1-1.84-3.7H349v27.7H334.84Zm30.47,37.24c1.85-1.85,2.77-4.31,2.77-7.69V99.1a10.69,10.69,0,0,0-2.77-7.69,9,9,0,0,0-6.77-2.77,15.3,15.3,0,0,0-3.69.61,9.78,9.78,0,0,0-3.08,1.54,3.85,3.85,0,0,0-1.85,2.46,11.22,11.22,0,0,0-.61,3.08v15.08a9.3,9.3,0,0,0,.61,3.08,16.92,16.92,0,0,0,1.85,2.46,9.57,9.57,0,0,0,3.08,1.54,15.32,15.32,0,0,0,3.69.62A9.65,9.65,0,0,0,365.31,115.72Z"/><path class="cls-6" d="M400.4,128.34a22.83,22.83,0,0,1-7.7-5.23,18.34,18.34,0,0,1-4.61-8.31,41.65,41.65,0,0,1-1.54-11.08,37.71,37.71,0,0,1,1.54-10.78,20,20,0,0,1,4.61-8.3,20.3,20.3,0,0,1,7.39-5.24,27.13,27.13,0,0,1,10.16-1.84,22.81,22.81,0,0,1,18.15,7.69,20.86,20.86,0,0,1,4,8.31,34.7,34.7,0,0,1,1.23,9.85v4.31H401v.92a23.63,23.63,0,0,0,.62,4.62,8,8,0,0,0,2.15,3.38,12.82,12.82,0,0,0,3.39,2.16,11.81,11.81,0,0,0,4.92.92,13.07,13.07,0,0,0,7.39-1.85,35.73,35.73,0,0,0,5.23-4.3l7.08,8.92c-2.15,2.77-5.23,4.62-8.93,6.16a31.49,31.49,0,0,1-12.31,2.15A49.45,49.45,0,0,1,400.4,128.34Zm6.15-39.7a10.92,10.92,0,0,0-3.07,2.15,7.26,7.26,0,0,0-1.85,3.39,18,18,0,0,0-.62,4.3v.93h17.85v-.93a18,18,0,0,0-.61-4.3,11.46,11.46,0,0,0-1.54-3.39,6.71,6.71,0,0,0-2.77-2.15C413,88,411.79,88,410.25,88A7.19,7.19,0,0,0,406.55,88.64Z"/><path class="cls-6" d="M437.94,129.26V78.48H452.1V89.56h.62a15.34,15.34,0,0,1,1.54-4,13.53,13.53,0,0,1,2.46-3.38,15.36,15.36,0,0,1,3.69-2.47,13.37,13.37,0,0,1,5.23-.92h2.47V91.72h-3.7a30.72,30.72,0,0,0-5.54.3,15.5,15.5,0,0,0-4,1.23,6.41,6.41,0,0,0-2.46,2.47,6.51,6.51,0,0,0-.92,3.69V129H437.94Z"/></g></g></svg>