<svg width="52" height="52" viewBox="0 0 52 52" fill="none" xmlns="http://www.w3.org/2000/svg">
<path d="M47.6673 18.6506V36.2916C47.6674 38.0903 46.9793 39.8208 45.744 41.1281C44.5088 42.4355 42.8201 43.2206 41.0243 43.3225L40.6256 43.3333H11.3757C9.57702 43.3334 7.84652 42.6453 6.53915 41.41C5.23178 40.1747 4.44665 38.486 4.34482 36.6903L4.33398 36.2916V18.6506L25.2467 29.6053C25.4793 29.7272 25.738 29.7908 26.0006 29.7908C26.2633 29.7908 26.522 29.7272 26.7546 29.6053L47.6673 18.6506ZM11.3757 8.66663H40.6256C42.3711 8.66642 44.0544 9.31445 45.3491 10.485C46.6438 11.6556 47.4576 13.2653 47.6326 15.002L26.0006 26.3336L4.36865 15.002C4.53662 13.3343 5.29393 11.7812 6.50444 10.622C7.71496 9.46268 9.29929 8.7732 10.9727 8.67746L11.3757 8.66663H40.6256H11.3757Z" fill="white"/>
</svg>
