<svg width="72" height="72" viewBox="0 0 72 72" fill="none" xmlns="http://www.w3.org/2000/svg">
<path d="M22.5 4.5C23.0967 4.5 23.669 4.73705 24.091 5.15901C24.5129 5.58097 24.75 6.15326 24.75 6.75V9H33.75V6.75C33.75 6.15326 33.9871 5.58097 34.409 5.15901C34.831 4.73705 35.4033 4.5 36 4.5C36.5967 4.5 37.169 4.73705 37.591 5.15901C38.0129 5.58097 38.25 6.15326 38.25 6.75V9H47.25V6.75C47.25 6.15326 47.4871 5.58097 47.909 5.15901C48.331 4.73705 48.9033 4.5 49.5 4.5C50.0967 4.5 50.669 4.73705 51.091 5.15901C51.5129 5.58097 51.75 6.15326 51.75 6.75V9C53.5402 9 55.2571 9.71116 56.523 10.977C57.7888 12.2429 58.5 13.9598 58.5 15.75V27.162C56.8867 27.4426 55.3523 28.0655 54 28.989V15.75C54 15.1533 53.7629 14.581 53.341 14.159C52.919 13.7371 52.3467 13.5 51.75 13.5H20.25C19.6533 13.5 19.081 13.7371 18.659 14.159C18.2371 14.581 18 15.1533 18 15.75V60.75C18 61.3467 18.2371 61.919 18.659 62.341C19.081 62.7629 19.6533 63 20.25 63H27.2115V63.009C26.8277 64.4999 26.935 66.0749 27.5175 67.5H20.25C18.4598 67.5 16.7429 66.7888 15.477 65.523C14.2112 64.2571 13.5 62.5402 13.5 60.75V15.75C13.5 13.9598 14.2112 12.2429 15.477 10.977C16.7429 9.71116 18.4598 9 20.25 9V6.75C20.25 6.15326 20.4871 5.58097 20.909 5.15901C21.331 4.73705 21.9033 4.5 22.5 4.5ZM45 36C45.4815 36 45.927 36.153 46.296 36.4095L42.201 40.5H27C26.4033 40.5 25.831 40.2629 25.409 39.841C24.9871 39.419 24.75 38.8467 24.75 38.25C24.75 37.6533 24.9871 37.081 25.409 36.659C25.831 36.2371 26.4033 36 27 36H45ZM31.482 51.4575C31.411 50.9159 31.1454 50.4186 30.7347 50.0584C30.324 49.6982 29.7963 49.4997 29.25 49.5H27C26.4033 49.5 25.831 49.7371 25.409 50.159C24.9871 50.581 24.75 51.1533 24.75 51.75C24.75 52.3467 24.9871 52.919 25.409 53.341C25.831 53.7629 26.4033 54 27 54H29.25C29.49 54.0006 29.7285 53.9626 29.9565 53.8875C30.393 53.037 30.9015 52.2225 31.482 51.4575ZM27 22.5C26.4033 22.5 25.831 22.7371 25.409 23.159C24.9871 23.581 24.75 24.1533 24.75 24.75C24.75 25.3467 24.9871 25.919 25.409 26.341C25.831 26.7629 26.4033 27 27 27H45C45.5967 27 46.169 26.7629 46.591 26.341C47.0129 25.919 47.25 25.3467 47.25 24.75C47.25 24.1533 47.0129 23.581 46.591 23.159C46.169 22.7371 45.5967 22.5 45 22.5H27ZM55.521 33.5475C56.838 32.2305 58.6242 31.4906 60.4867 31.4906C62.3493 31.4906 64.1355 32.2305 65.4525 33.5475C66.7695 34.8645 67.5094 36.6507 67.5094 38.5133C67.5094 40.3758 66.7695 42.162 65.4525 43.479L46.152 62.775C44.5509 64.3774 42.5444 65.5144 40.347 66.0645L34.8975 67.428C34.4374 67.5433 33.9553 67.5374 33.4982 67.411C33.0411 67.2845 32.6245 67.0417 32.2891 66.7064C31.9538 66.371 31.711 65.9544 31.5845 65.4973C31.4581 65.0402 31.4522 64.5581 31.5675 64.098L32.9355 58.653C33.4845 56.4525 34.6185 54.4455 36.2205 52.848L55.521 33.5475Z" fill="url(#paint0_linear_304_1554)"/>
<defs>
<linearGradient id="paint0_linear_304_1554" x1="54.9358" y1="62.0095" x2="20.6919" y2="8.99113" gradientUnits="userSpaceOnUse">
<stop stop-color="#5EC8F8"/>
<stop offset="1" stop-color="#04599C"/>
</linearGradient>
</defs>
</svg>
