<svg width="533" height="405" viewBox="0 0 533 405" fill="none" xmlns="http://www.w3.org/2000/svg">
<g clip-path="url(#clip0_304_1352)">
<path d="M294.292 336.721H261.874V326.404H294.292V336.721Z" fill="#EBEBEB"/>
<path d="M384.325 60.8129L351.907 60.8129V50.4957H384.325V60.8129Z" fill="#EBEBEB"/>
<path d="M276.211 349.786C270.827 349.694 257.024 349.463 251.824 349.399H243.794L244.218 349.823V339.506L243.757 339.967L259.966 339.902C264.004 339.902 272.136 339.773 276.174 339.718L275.953 339.506L276.211 349.786ZM276.211 349.786L276.423 339.469V339.248H276.202C272.154 339.192 264.032 339.1 259.993 339.072L243.785 339.008H243.324V339.469V349.786V350.201H243.738H251.917C257.08 350.146 270.818 349.915 276.156 349.823L276.211 349.786Z" fill="#EBEBEB"/>
<path d="M521.989 243.692C516.604 243.599 502.802 243.369 497.602 243.314H489.571L489.995 243.728V233.411L489.534 233.872C494.919 233.872 508.647 233.808 513.847 233.734L521.952 233.633L521.731 233.411L521.952 243.728L521.989 243.692ZM521.989 243.692L522.21 233.374V233.162H521.989L505.78 232.987L489.571 232.923H489.11V233.384L489.156 243.701V244.125H489.571H497.749C502.913 244.06 516.65 243.83 521.989 243.738V243.692Z" fill="#EBEBEB"/>
<path d="M503.908 256.664C498.524 256.572 484.721 256.341 479.521 256.286H471.491L471.905 256.701L471.952 246.384L471.491 246.845C476.875 246.845 490.604 246.78 495.804 246.706L503.908 246.605L503.687 246.384L503.908 256.664ZM503.908 256.664L504.12 246.347V246.135H503.899L487.69 245.96L471.481 245.895H471.02V246.356V256.673V257.097H471.435L479.613 257.051C484.777 256.996 498.514 256.765 503.853 256.673L503.908 256.664Z" fill="#EBEBEB"/>
<path d="M485.901 243.691H453.484V233.374H485.901V243.691Z" fill="#EBEBEB"/>
<path d="M294.291 31.1429C288.907 31.0507 275.105 30.8202 269.905 30.7556H261.874L262.298 31.1797V20.8626L261.837 21.3236L278.046 21.259C282.084 21.259 290.216 21.1299 294.255 21.0746L294.033 20.8626L294.255 31.1797L294.291 31.1429ZM294.291 31.1429L294.513 20.8257V20.6321H294.291C290.244 20.5767 282.121 20.4845 278.083 20.4477L261.874 20.3923H261.413V20.8626L261.459 31.1797V31.5946H261.874H270.052C275.215 31.5393 288.953 31.2996 294.291 31.2166V31.1429Z" fill="#EBEBEB"/>
<path d="M402.405 198.209C443.812 209.08 428.424 267.968 386.952 257.079C345.481 246.19 360.933 187.32 402.405 198.209Z" fill="#EBEBEB"/>
<path d="M368.052 226.551C367.609 237.302 373.648 248.255 388.271 252.054C422.68 261.08 435.459 212.205 401.096 203.188L400.423 203.022C432.601 212.104 420.292 258.342 387.515 249.721C374.1 246.236 368.116 236.38 368.052 226.551Z" fill="#DBDBDB"/>
<path d="M399.16 209.587C398.888 209.508 398.597 209.539 398.348 209.671C398.098 209.804 397.91 210.028 397.823 210.297L397.389 211.929C394.466 211.368 391.444 211.64 388.667 212.712C388.188 212.887 387.902 213.081 387.745 213.487C387.692 213.785 387.759 214.092 387.931 214.341C388.104 214.59 388.369 214.761 388.667 214.814C388.818 214.865 388.977 214.885 389.136 214.872C389.294 214.86 389.449 214.815 389.589 214.741C391.919 213.77 394.469 213.451 396.965 213.819L393.932 225.316C386.777 224.837 383.292 226.422 382.241 230.442C381.098 234.785 384.279 238.906 389.838 240.538L388.999 243.738C388.955 244.011 389.015 244.291 389.166 244.523C389.318 244.755 389.55 244.923 389.818 244.993C390.086 245.063 390.371 245.031 390.617 244.903C390.862 244.775 391.052 244.56 391.148 244.3L391.996 241.064C395.762 241.806 399.666 241.342 403.152 239.736C403.323 239.682 403.479 239.586 403.604 239.458C403.73 239.329 403.822 239.171 403.871 238.998C403.922 238.712 403.863 238.417 403.706 238.173C403.548 237.928 403.304 237.752 403.023 237.68C402.717 237.59 402.389 237.616 402.101 237.754C399.105 239.269 395.699 239.774 392.392 239.192L395.453 227.51C402.534 227.925 405.9 226.404 406.978 222.301C408.057 218.198 404.95 214.003 399.519 212.417L399.925 210.859C399.982 210.589 399.935 210.308 399.793 210.072C399.651 209.836 399.425 209.662 399.16 209.587ZM396.053 225.427L398.994 214.252C403.309 215.478 405.558 218.604 404.784 221.554C404.074 224.329 402.165 225.666 396.053 225.427ZM393.425 227.409L390.456 238.722C386.003 237.459 383.707 234.315 384.528 231.208C385.274 228.377 387.294 227.068 393.425 227.409Z" fill="#DBDBDB"/>
<path d="M301.732 80.0365C336.584 97.8864 310.196 149.537 275.289 131.668C240.382 113.8 266.798 62.122 301.732 80.0365Z" fill="#DBDBDB"/>
<path d="M298.441 78.3584C331.633 95.3785 305.263 147.02 271.998 129.99C238.732 112.961 265.166 61.3199 298.441 78.3584Z" fill="#EBEBEB"/>
<path d="M262.538 98.6701C259.772 108.453 262.538 119.609 274.247 125.593C301.861 139.736 323.759 96.8722 296.191 82.7564L295.647 82.489C321.325 96.319 300.414 136.804 274.09 123.315C263.349 117.82 260.436 107.752 262.538 98.6701Z" fill="#DBDBDB"/>
<path d="M288.206 86.7855C287.954 86.7397 287.695 86.7955 287.484 86.9406C287.273 87.0858 287.128 87.3084 287.081 87.56L286.796 89.1551C284.176 88.8857 281.535 89.4092 279.217 90.6579C279.038 90.7216 278.879 90.8294 278.753 90.9712C278.627 91.1131 278.539 91.2844 278.498 91.4693C278.455 91.7395 278.522 92.0154 278.682 92.2367C278.843 92.4579 279.085 92.6064 279.355 92.6494C279.486 92.6781 279.621 92.6798 279.753 92.6545C279.884 92.6291 280.009 92.5772 280.12 92.5019C282.076 91.3753 284.322 90.8525 286.574 90.9991L284.564 102.118C278.295 102.303 275.344 104.101 274.634 108.001C273.878 112.205 276.875 115.829 281.808 116.88L281.254 119.987C281.211 120.238 281.268 120.497 281.413 120.707C281.557 120.917 281.778 121.062 282.029 121.112C282.282 121.152 282.542 121.094 282.753 120.948C282.965 120.802 283.111 120.58 283.163 120.328L283.725 117.193C287.097 117.537 290.487 116.749 293.36 114.953C293.559 114.866 293.725 114.717 293.834 114.529C293.942 114.341 293.987 114.123 293.962 113.907C293.938 113.692 293.844 113.489 293.696 113.331C293.548 113.172 293.353 113.065 293.139 113.026C293.008 112.998 292.873 112.996 292.741 113.021C292.61 113.047 292.485 113.098 292.374 113.173C289.904 114.846 286.938 115.627 283.965 115.386L286.012 104.064C292.208 103.833 295.066 102.091 295.785 98.1169C296.504 94.1431 293.572 90.409 288.741 89.4224L289.018 87.9104C289.058 87.6538 288.995 87.3919 288.843 87.1813C288.691 86.9707 288.462 86.8285 288.206 86.7855ZM286.362 102.035L288.326 91.1927C292.162 91.9672 294.291 94.7332 293.775 97.5914C293.277 100.293 291.701 101.768 286.353 102.035H286.362ZM284.177 104.147L282.195 115.109C278.239 114.316 276.073 111.541 276.617 108.526C277.105 105.779 278.793 104.368 284.168 104.147H284.177Z" fill="#DBDBDB"/>
<path d="M425.114 287.625C425.395 282.969 426.055 278.343 427.087 273.795C428.064 269.692 429.457 265.497 432.038 262.104C434.408 259.006 437.801 256.572 441.756 256.055C445.555 255.585 449.132 257.282 451.972 259.679C455.503 262.648 458.195 266.575 460.731 270.383C463.51 274.648 466.038 279.072 468.301 283.632C468.374 283.78 468.144 283.909 468.07 283.752C466.106 279.893 463.844 276.194 461.303 272.688C458.988 269.321 456.381 266.165 453.512 263.256C450.902 260.711 447.583 258.323 443.803 258.204C440.023 258.084 436.565 260.204 434.297 263.099C431.762 266.345 430.471 270.392 429.512 274.339C428.511 278.681 427.858 283.096 427.557 287.542C426.811 296.679 426.635 305.871 426.405 315.026C426.294 320.214 426.217 325.399 426.174 330.581C426.174 333.205 426.153 335.833 426.11 338.464C426.207 341 426.105 343.54 425.806 346.061C425.723 346.568 424.884 346.522 424.801 346.061C424.495 343.677 424.377 341.272 424.45 338.869C424.389 336.312 424.358 333.805 424.358 331.346C424.358 326.505 424.294 321.665 424.312 316.824C424.358 307.079 424.45 297.324 425.114 287.625Z" fill="#263238"/>
<path d="M454.922 263.653C455.752 263.985 454.627 254.248 458.463 253.004C463.884 251.243 476.322 254.424 483.209 263.653C484.553 265.536 485.567 267.634 486.206 269.858C482.785 268.198 471.454 262.961 468.642 264.566C466.06 266.031 482.269 271.112 487.257 274.385C487.48 275.737 487.631 277.101 487.709 278.469C484.786 276.459 476.838 271.25 473.289 271.25C469.333 271.25 482.435 278.174 487.736 283.144C487.543 287.982 486.507 292.75 484.675 297.232C483.32 294.669 480.333 289.672 476.469 286.979C471.122 283.236 468.771 289.247 475.547 294.005C479.143 296.55 481.734 298.615 483.375 300.053C481.852 302.977 479.819 305.606 477.373 307.817C474.981 305.119 471.959 303.054 468.577 301.805C467.277 301.344 465.138 300.754 462.566 299.887C461.653 296.624 461.036 293.285 460.722 289.911C460.574 285.956 455.89 288.15 457.79 295.185C458.149 296.504 458.481 297.601 458.786 298.504C456.767 297.803 454.841 296.858 453.051 295.692C452.793 293.396 453.18 288.086 454.129 283.088C455.3 276.856 450.552 276.422 449.519 284.269C449.049 287.883 449.741 291.645 449.962 294.088C444.596 290.953 440.152 284.61 440.152 284.61C440.633 281.103 441.894 277.748 443.84 274.79C446.477 270.807 443.628 269.258 440.982 272.836C439.507 274.837 438.64 278.202 438.151 280.783C432.499 261.827 439.507 257.448 454.922 263.653ZM480.6 284.324C482.066 282.203 477.004 278.313 475.907 279.64C474.543 281.364 479.18 286.491 480.6 284.324ZM446.79 275.611C448.837 277.095 450.81 272.181 449.473 271.333C448.136 270.485 445.085 274.376 446.836 275.648L446.79 275.611Z" fill="url(#paint0_linear_304_1352)"/>
<path d="M451.538 272.882C452.239 271.499 452.958 270.116 453.76 268.816C454.487 267.507 455.339 266.272 456.305 265.128C456.084 264.861 455.872 264.584 455.641 264.317C455.621 264.295 455.609 264.265 455.61 264.235C455.611 264.205 455.624 264.176 455.646 264.155C455.668 264.134 455.697 264.123 455.728 264.124C455.758 264.125 455.787 264.138 455.807 264.16C456.065 264.455 456.305 264.759 456.563 265.082C456.611 265.108 456.647 265.151 456.665 265.202C457.587 266.345 458.509 267.525 459.375 268.724C460.889 269.071 462.382 269.502 463.847 270.015C465.359 270.522 466.862 271.047 468.328 271.674C468.485 271.739 468.411 271.988 468.254 271.923C466.798 271.278 465.322 270.651 463.81 270.144C462.298 269.636 460.934 269.286 459.486 268.88C459.956 269.544 460.408 270.217 460.86 270.9C463.584 271.757 466.232 272.836 468.78 274.127C471.454 275.399 474.026 276.893 476.589 278.349C476.611 278.371 476.625 278.4 476.629 278.43C476.633 278.461 476.627 278.492 476.611 278.519C476.595 278.546 476.57 278.566 476.541 278.577C476.512 278.588 476.48 278.589 476.451 278.58C473.932 277.108 471.341 275.763 468.688 274.551C466.207 273.389 463.635 272.439 461.136 271.333C467.434 281.161 471.214 292.493 476.257 302.985C476.331 303.142 476.091 303.271 476.027 303.114C474.487 299.426 472.708 295.849 471.03 292.225C469.527 288.98 468.061 285.707 466.549 282.462C466.106 281.515 465.654 280.565 465.193 279.613C465.47 284.859 465.359 290.197 466.217 295.379C466.217 295.413 466.203 295.446 466.179 295.47C466.155 295.494 466.122 295.508 466.088 295.508C466.053 295.508 466.021 295.494 465.996 295.47C465.972 295.446 465.959 295.413 465.959 295.379C465.599 289.773 464.603 284.259 464.649 278.617C464.649 278.617 464.649 278.571 464.649 278.543C463.58 276.404 462.446 274.283 461.21 272.227C459.126 277.142 456.932 282.12 455.964 287.394C455.964 287.56 455.669 287.486 455.715 287.32C457.135 282.037 458.481 276.745 460.989 271.859C459.653 269.633 458.172 267.499 456.554 265.469C455.863 266.769 454.959 268.005 454.166 269.249C453.373 270.494 452.626 271.702 451.907 272.937C450.36 275.585 449.043 278.362 447.97 281.235C447.915 281.401 447.657 281.318 447.721 281.161C448.948 278.405 450.174 275.593 451.538 272.882Z" fill="#263238"/>
<path d="M401.917 284.822C405.955 280.774 410.657 275.454 416.899 275.464C422.92 275.464 427.355 280.332 429.909 285.329C432.573 290.566 433.523 296.494 434.279 302.257C435.164 309.156 435.697 316.095 435.874 323.048C435.985 326.911 435.966 330.784 435.874 334.647C435.867 338.565 435.559 342.476 434.952 346.347C434.841 346.965 433.836 346.992 433.799 346.347C433.624 343.092 433.753 339.828 433.799 336.565C433.846 333.301 433.799 330.157 433.643 326.948C433.409 320.463 432.92 314.009 432.177 307.586C431.513 301.962 430.978 296.172 429.3 290.732C427.779 285.836 424.93 280.221 419.96 278.073C413.174 275.132 406.554 280.498 402.11 285.034C402 285.108 401.797 284.942 401.917 284.822Z" fill="#263238"/>
<path d="M389.626 291.156C395.039 290.612 393.554 287.662 388.621 288.952C385.967 289.668 383.467 290.865 381.245 292.484C381.081 288.105 381.822 283.739 383.421 279.659C387.939 278.525 392.051 280.516 396.274 282.489C400.497 284.462 403.318 279.336 398.358 276.874C396.28 275.851 394.002 275.299 391.686 275.258C389.371 275.216 387.074 275.686 384.961 276.635C385.329 275.98 385.733 275.346 386.169 274.735C387.326 273.015 388.716 271.463 390.3 270.125C393.988 270.42 396.044 272.698 397.132 273.417C398.69 274.44 401.142 273.242 399.584 271.029C398.376 269.295 395.352 268.503 392.853 268.263C397.316 265.635 401.751 265.626 404.268 266.769C408.629 268.761 407.412 280.258 407.412 280.258C407.412 280.258 418.854 274.136 422.606 278.958C423.795 280.64 424.606 282.558 424.985 284.582C420.928 283.098 415.95 282.738 415.489 285.163C415.028 287.588 421.841 287.007 425.4 287.385C425.824 292.502 424.635 298.504 420.541 302.736C417.065 296.052 409.339 290.981 408.242 294.66C407.144 298.338 415.442 299.27 418.835 304.276C417.365 305.354 415.767 306.246 414.078 306.931C412.234 304.166 409.127 300.321 407.624 301.482C406.121 302.644 410.04 305.355 412.557 307.54C408.97 308.84 405.285 309.854 401.539 310.573C400.617 306.719 398.856 303.114 397.159 303.446C395.463 303.778 398.754 307.807 400.174 310.822C395.175 311.809 390.113 312.449 385.026 312.74C384.712 312.657 382.628 306.572 381.697 298.993C384.2 297.989 386.866 297.455 389.562 297.416C393.397 297.241 393.757 292.88 388.031 293.489C385.63 293.849 383.356 294.8 381.411 296.255C381.347 295.462 381.301 294.641 381.273 293.811C383.848 292.367 386.69 291.463 389.626 291.156ZM391.056 285.246C390.465 283.946 386.971 284.407 387.312 286.002C387.653 287.597 391.535 286.306 391.056 285.246ZM419.702 296.061C419.914 294.973 417.572 293.987 417.24 294.853C416.908 295.72 419.407 297.463 419.702 296.015V296.061ZM403.226 304.995C405.07 304.018 402.424 299.777 400.718 300.459C399.326 300.975 401.373 305.917 403.226 304.949V304.995Z" fill="url(#paint1_linear_304_1352)"/>
<path d="M385.735 311.984C388.308 307.687 390.843 303.363 393.545 299.14C394.799 297.177 396.117 295.25 397.482 293.359C397.279 293.359 397.076 293.258 396.873 293.212L395.85 293.018C395.057 292.877 394.264 292.766 393.471 292.686C392.715 292.613 391.968 292.567 391.212 292.557C390.405 292.513 389.595 292.556 388.796 292.686C388.704 292.686 388.686 292.557 388.796 292.557C389.599 292.557 390.419 292.484 391.23 292.474C392.042 292.465 392.789 292.474 393.572 292.53C394.356 292.585 395.029 292.65 395.758 292.76C396.154 292.816 396.56 292.889 396.956 292.972C397.199 293.007 397.439 293.056 397.675 293.12C399.064 291.202 400.509 289.327 402.009 287.496C397.559 285.329 392.82 283.814 387.939 282.996C387.856 282.996 387.884 282.858 387.939 282.876C392.899 283.554 397.721 285.007 402.23 287.182C403.051 286.177 403.871 285.172 404.71 284.176C405.549 283.181 406.628 281.964 407.476 280.774C407.531 280.7 407.642 280.774 407.578 280.848C406.42 282.12 405.331 283.453 404.314 284.84C406.149 286.122 407.896 287.527 409.541 289.045C411.256 290.557 412.922 292.121 414.539 293.738C414.603 293.793 414.539 293.885 414.456 293.83C412.851 292.235 411.192 290.713 409.449 289.275C407.707 287.837 405.881 286.509 404.138 285.071L402.949 286.638L402.341 287.431L402.294 287.486C401.631 288.353 400.958 289.229 400.303 290.105C401.078 291.234 401.742 292.435 402.285 293.691C402.866 294.908 403.364 296.162 403.825 297.379C404.747 300.006 405.466 302.7 405.973 305.438C405.973 305.521 405.863 305.558 405.844 305.438C405.295 302.741 404.511 300.097 403.502 297.536C403.004 296.227 402.433 294.945 401.852 293.664C401.271 292.382 400.672 291.386 400.174 290.206L398.45 292.52C398.293 292.751 398.136 292.981 397.97 293.203C397.97 293.258 397.97 293.323 397.915 293.323C396.154 295.784 394.467 298.311 392.835 300.865C392.933 301.042 393.007 301.231 393.056 301.427C393.167 301.731 393.259 302.045 393.351 302.349C393.535 302.985 393.683 303.621 393.803 304.267C393.923 304.912 393.996 305.484 394.061 306.111C394.068 306.808 394.117 307.504 394.209 308.194C394.209 308.296 394.07 308.305 394.089 308.194C394.131 307.545 394.082 306.893 393.941 306.258C393.849 305.594 393.729 304.931 393.572 304.276C393.416 303.621 393.277 303.105 393.102 302.524C393.01 302.229 392.918 301.943 392.816 301.648C392.761 301.501 392.687 301.344 392.641 301.178C391.876 302.377 391.111 303.584 390.373 304.792C388.889 307.199 387.423 309.614 385.947 312.012C385.855 312.196 385.634 312.085 385.735 311.984Z" fill="#263238"/>
<path d="M425.382 344.973C425.446 342.539 425.833 340.087 426.101 337.662C426.368 335.237 426.636 332.794 426.903 330.359C427.401 325.666 427.677 320.872 428.747 316.271C429.571 312.266 431.575 308.599 434.5 305.742C436.013 304.23 437.998 303.283 440.124 303.059C442.262 302.999 444.359 303.647 446.09 304.903C448.064 306.357 449.765 308.149 451.115 310.195C452.57 312.216 453.876 314.339 455.024 316.548C455.024 316.631 454.932 316.686 454.886 316.603C452.718 312.913 449.842 309.688 446.422 307.116C444.899 305.866 443.043 305.093 441.083 304.894C439.154 304.87 437.293 305.613 435.911 306.959C433.071 309.43 431.43 313.063 430.453 316.631C429.291 320.863 428.913 325.307 428.332 329.64C427.991 332.222 427.659 334.794 427.318 337.376C426.977 339.957 426.765 342.567 426.221 345.102C426.204 345.214 426.143 345.313 426.052 345.38C425.961 345.447 425.848 345.474 425.737 345.457C425.625 345.44 425.525 345.379 425.459 345.289C425.392 345.198 425.365 345.084 425.382 344.973Z" fill="#263238"/>
<path d="M440.521 308.351C446.117 308.241 452.046 312.417 452.046 312.417C452.046 312.417 448.892 301.519 457.651 301.879C462.852 302.082 469.342 307.54 470.652 316.05C468.642 314.98 464.419 312.934 461.072 312.878C456.536 312.795 456.222 316.345 462.483 316.88C465.319 317.034 468.13 317.501 470.864 318.272C470.968 320.934 470.612 323.595 469.813 326.137C466.327 324.016 460.362 321.766 460.187 324.689C460.058 326.856 466.208 327.031 469.25 327.787C467.964 331.124 466.197 334.255 464.004 337.081C459.733 336.462 455.516 335.513 451.391 334.241C451.375 332.71 451.508 331.182 451.788 329.677C452.525 325.795 449.667 325.722 449.298 329.456C449.167 330.85 449.257 332.257 449.565 333.623C446.724 332.679 444.006 331.398 441.47 329.806C441.546 326.852 442.152 323.935 443.259 321.195C444.375 318.161 442.171 316.419 440.309 319.913C439.101 322.163 439.589 326.367 439.986 328.764C438.982 327.989 438.091 327.076 437.34 326.054C431.384 317.728 434.933 308.471 440.521 308.351ZM464.659 310.361C464.456 308.794 460.547 309.089 460.74 310.315C460.934 311.541 464.926 312.131 464.659 310.361ZM469.01 323.159C468.632 322.144 466.945 322.283 467.028 323.085C467.111 323.887 469.269 323.813 469.01 323.159ZM445.813 328.644C448.081 328.737 447.334 324.034 446.016 323.832C444.891 323.675 444.08 328.58 445.813 328.644Z" fill="url(#paint2_linear_304_1352)"/>
<path d="M447.842 329.069C448.054 328.488 448.247 327.888 448.432 327.289C448.266 327.898 448.109 328.506 447.998 329.133C447.994 329.143 447.988 329.153 447.98 329.161C447.972 329.168 447.963 329.175 447.953 329.179C447.942 329.183 447.931 329.186 447.92 329.186C447.909 329.186 447.898 329.183 447.888 329.179C447.877 329.175 447.868 329.169 447.86 329.161C447.852 329.153 447.846 329.144 447.842 329.133C447.837 329.123 447.835 329.112 447.835 329.101C447.835 329.09 447.837 329.079 447.842 329.069Z" fill="#263238"/>
<path d="M450.174 321.49C450.589 320.282 451.05 319.083 451.52 317.903C451.769 317.267 452.027 316.64 452.304 316.013C452.503 315.459 452.766 314.93 453.088 314.436C452.814 313.944 452.576 313.433 452.378 312.906C452.378 312.86 452.378 312.823 452.452 312.86C453.097 313.69 453.668 314.575 454.157 315.506C454.406 315.921 454.637 316.336 454.876 316.751C455.365 316.751 455.863 316.898 456.342 316.981C456.822 317.064 457.393 317.184 457.919 317.304L459.477 317.663C459.993 317.792 460.501 317.958 461.026 318.041C461.038 318.043 461.05 318.047 461.06 318.053C461.071 318.059 461.079 318.068 461.086 318.078C461.093 318.088 461.097 318.099 461.099 318.111C461.101 318.123 461.1 318.136 461.097 318.147C461.093 318.159 461.087 318.17 461.079 318.179C461.071 318.188 461.061 318.195 461.05 318.2C461.039 318.205 461.027 318.207 461.015 318.207C461.003 318.207 460.991 318.204 460.98 318.198C460.448 318.015 459.902 317.873 459.348 317.774C458.841 317.663 458.334 317.58 457.827 317.507C457.32 317.433 456.813 317.368 456.296 317.322C455.78 317.276 455.531 317.258 455.144 317.221C455.356 317.59 455.568 317.958 455.771 318.327C455.805 318.384 455.836 318.442 455.863 318.502C456.286 318.496 456.707 318.545 457.117 318.65C457.578 318.733 458.039 318.816 458.472 318.917C459.394 319.12 460.316 319.332 461.192 319.581C463.091 320.116 464.963 320.715 466.825 321.333C466.936 321.333 466.825 321.517 466.761 321.49C464.907 320.863 463.02 320.337 461.109 319.913C460.187 319.71 459.32 319.507 458.417 319.323L457.071 319.037C456.717 318.979 456.366 318.902 456.02 318.807C456.991 320.583 457.894 322.393 458.73 324.237C460.574 328.248 462.068 332.388 463.626 336.509C463.626 336.61 463.506 336.675 463.469 336.574C461.963 332.482 460.224 328.48 458.26 324.588C457.91 323.878 457.55 323.168 457.191 322.458C457.191 322.596 457.126 322.744 457.098 322.891C457.006 323.38 456.923 323.868 456.84 324.348C456.674 325.325 456.508 326.303 456.37 327.28C455.955 329.283 455.717 331.32 455.66 333.365C455.66 333.494 455.476 333.485 455.494 333.365C455.615 332.389 455.686 331.407 455.706 330.424C455.771 329.4 455.844 328.377 455.964 327.354C456.084 326.33 456.204 325.39 456.37 324.412C456.453 323.924 456.536 323.435 456.628 322.946C456.653 322.582 456.747 322.225 456.905 321.895C456.388 320.863 455.881 319.83 455.365 318.807C454.849 317.783 454.388 316.889 453.881 315.93C453.669 315.524 453.447 315.119 453.217 314.704C453.056 315.208 452.862 315.701 452.636 316.179L451.963 317.839C451.456 319.056 451.041 320.291 450.525 321.527C449.87 323.278 449.132 325.067 448.588 326.893C449.095 325.076 449.547 323.26 450.174 321.49Z" fill="#263238"/>
<path d="M448.431 327.289C448.431 327.151 448.514 327.003 448.561 326.865C448.524 327.003 448.478 327.151 448.431 327.289Z" fill="#263238"/>
<path d="M410.749 340.234L411.367 353.262L412.953 386.841H447.592L449.178 353.262L449.796 340.234H410.749Z" fill="#37474F"/>
<path d="M410.749 340.234L411.136 348.477L449.363 349.399L449.796 340.234H410.749Z" fill="#263238"/>
<path d="M408.288 334.969H452.258V345.508H408.288V334.969Z" fill="#37474F"/>
<path d="M438.704 386.841H444.79V392.355H438.704V386.841Z" fill="#37474F"/>
<path d="M438.704 386.841H444.79V389.598H438.704V386.841Z" fill="#263238"/>
<path d="M415.756 386.841H421.832V392.355H415.756V386.841Z" fill="#37474F"/>
<path d="M415.756 386.841H421.832V389.598H415.756V386.841Z" fill="#263238"/>
<path d="M353.839 243.912C359.48 243.815 373.942 243.574 379.39 243.516H387.804L387.36 243.95V233.147L387.843 233.63C382.201 233.63 367.817 233.562 362.369 233.485L353.877 233.379L354.109 233.147L353.877 243.95L353.839 243.912ZM353.839 243.912L353.607 233.108V232.886H353.839L370.821 232.703L387.804 232.635H388.287V233.118L388.239 243.921V244.365H387.804H379.235C373.826 244.298 359.432 244.056 353.839 243.96V243.912Z" fill="#EBEBEB"/>
<path d="M372.782 257.495C378.424 257.399 392.885 257.157 398.333 257.099H406.747L406.313 257.534L406.264 246.731L406.747 247.213C401.106 247.213 386.722 247.146 381.274 247.069L372.782 246.962L373.014 246.731L372.782 257.495ZM372.782 257.495L372.56 246.692V246.47H372.792L389.774 246.287L406.757 246.219H407.24V246.702V257.505V257.949H406.805L398.237 257.901C392.827 257.843 378.433 257.602 372.84 257.505L372.782 257.495Z" fill="#EBEBEB"/>
<path d="M391.649 243.912H425.614V233.108H391.649V243.912Z" fill="#EBEBEB"/>
<path d="M264.637 21.3396L298.602 21.3396V10.5363L264.637 10.5363V21.3396Z" fill="#EBEBEB"/>
<path d="M245.693 34.9716C251.335 34.8751 265.796 34.6337 271.244 34.5661H279.658L279.214 35.0103V24.207L279.697 24.6897C274.056 24.6897 259.672 24.6125 254.223 24.5353L245.732 24.4291L245.964 24.207L245.732 35.0103L245.693 34.9716ZM245.693 34.9716L245.461 24.1684V23.9367H245.693C249.934 23.8788 258.435 23.7822 262.676 23.7436L279.658 23.6857H280.141V24.178V34.9813V35.4447H279.707H271.138C265.728 35.3868 251.325 35.1358 245.742 35.0489L245.693 34.9716Z" fill="#EBEBEB"/>
<path d="M404.081 399.415C401.753 400.139 333.929 398.671 331.456 397.02C330.49 396.412 336.286 332.201 336.286 332.201L379.303 333.022L374.405 375.974C374.405 375.974 399.464 387.829 402.033 389.905C404.603 391.981 406.4 398.671 404.081 399.415Z" fill="#AD6359"/>
<path d="M404.081 399.415C401.763 400.139 333.929 398.671 331.456 397.02C331.157 396.827 331.07 390.311 332.142 381.824C344.439 383.881 388.345 390.62 391.765 388.583C394.151 387.183 392.035 384.991 390.084 383.514C395.687 386.314 400.922 388.998 402.004 389.896C404.516 392 406.4 398.681 404.081 399.415Z" fill="#37474F"/>
<path d="M375.651 365.624L333.446 365.064C333.446 365.064 341.812 263.974 341.464 262.033C341.02 259.542 311.063 142.135 311.063 142.135H351.366C351.366 142.135 383.148 251.568 384.288 262.11C386.104 279.141 375.651 365.624 375.651 365.624Z" fill="#37474F"/>
<path d="M337.214 355.536C339.706 355.352 342.237 355.381 344.739 355.352C347.241 355.323 349.743 355.352 352.245 355.352C357.259 355.4 362.263 355.478 367.267 355.623C368.638 355.623 370.01 355.7 371.382 355.767C372.754 355.835 374.28 356.086 375.767 356.134C375.787 356.141 375.804 356.153 375.816 356.169C375.827 356.186 375.834 356.206 375.834 356.226C375.834 356.246 375.827 356.266 375.816 356.283C375.804 356.299 375.787 356.311 375.767 356.318C374.541 356.318 373.304 356.511 372.077 356.54C370.85 356.569 369.527 356.588 368.213 356.588C365.702 356.588 363.196 356.588 360.698 356.588C355.694 356.588 350.68 356.482 345.676 356.269C342.846 356.154 339.996 356.125 337.185 355.835C337.165 355.833 337.146 355.827 337.129 355.818C337.111 355.809 337.096 355.796 337.083 355.781C337.071 355.766 337.061 355.748 337.055 355.729C337.05 355.71 337.048 355.69 337.05 355.671C337.051 355.651 337.057 355.632 337.066 355.615C337.076 355.597 337.088 355.582 337.104 355.569C337.119 355.557 337.136 355.547 337.155 355.542C337.174 355.536 337.194 355.534 337.214 355.536Z" fill="#37474F"/>
<path d="M319.922 151.616C323.535 164.379 326.829 177.248 330.056 190.117C333.282 202.987 336.509 215.856 339.716 228.735L344.546 248.044C346.101 254.309 347.917 260.594 348.304 267.092C348.69 273.589 347.859 280.318 347.338 286.874C346.816 293.429 346.227 300.052 345.647 306.636C344.498 319.824 343.387 333.012 341.957 346.171C341.773 347.812 341.6 349.463 341.435 351.114C341.435 351.249 341.203 351.249 341.213 351.114C342.083 337.926 342.991 324.738 344.044 311.531C344.578 304.934 345.116 298.343 345.657 291.759C346.198 285.184 346.971 278.581 347.173 271.987C347.376 265.393 346.207 258.953 344.556 252.523C342.904 246.094 341.397 239.915 339.822 233.62C336.602 220.748 333.382 207.875 330.162 195.003C326.588 180.589 323.013 166.146 319.855 151.625C319.844 151.62 319.835 151.611 319.83 151.6C319.824 151.589 319.822 151.576 319.825 151.564C319.827 151.552 319.833 151.541 319.841 151.533C319.85 151.524 319.861 151.519 319.873 151.517C319.886 151.515 319.898 151.517 319.909 151.523C319.92 151.529 319.928 151.538 319.934 151.549C319.939 151.56 319.941 151.572 319.939 151.584C319.937 151.596 319.931 151.607 319.922 151.616Z" fill="black"/>
<path d="M311.025 142.135C311.025 142.135 323.883 192.502 332.876 227.963L350.023 142.135H311.025Z" fill="black"/>
<path d="M353.433 399.55C351.105 400.274 283.281 398.807 280.798 397.156C279.832 396.547 283.387 332.298 283.387 332.298L325.844 333.128L323.786 376.109C323.786 376.109 348.815 387.955 351.346 390.06C353.877 392.164 355.751 398.836 353.433 399.55Z" fill="#AD6359"/>
<path d="M353.433 399.55C351.105 400.274 283.281 398.806 280.798 397.156C280.499 396.972 280.576 390.62 280.798 381.95C293.096 384.006 337.687 390.755 341.107 388.708C343.483 387.308 341.377 385.117 339.426 383.649C345.029 386.439 350.255 389.123 351.337 390.031C353.858 392.155 355.751 398.835 353.433 399.55Z" fill="#37474F"/>
<path d="M350.032 142.116C350.032 142.116 347.753 170.606 343.106 177.75C339.04 179.318 335.127 181.257 331.417 183.543C331.417 183.543 328.519 259.725 328.519 264.302C328.712 281.419 324.336 364.784 324.336 364.784L281.754 364.379C281.754 364.379 286.169 270.104 286.188 263.838C286.188 257.775 289.086 219.515 291.656 186.352C291.656 186.352 287.869 175.732 288.285 170.403C289.299 157.437 295.124 142.106 295.124 142.106L350.032 142.116Z" fill="#37474F"/>
<path d="M335.05 169.196C335.204 168.135 335.368 167.063 335.533 166.001C335.832 164.07 336.228 162.139 336.566 160.208C337.349 155.796 338.151 151.375 339.136 147.001C339.136 146.975 339.146 146.951 339.164 146.933C339.182 146.915 339.207 146.905 339.233 146.905C339.258 146.905 339.283 146.915 339.301 146.933C339.319 146.951 339.329 146.975 339.329 147.001C339.155 148.768 338.952 150.525 338.701 152.282C338.45 154.039 338.276 155.816 338.025 157.573C337.532 161.058 337.059 164.553 336.46 168.019C336.228 169.361 335.397 171.755 337.32 172.17C338.846 172.498 339.967 171.002 340.411 169.747C340.889 168.17 341.231 166.555 341.435 164.92C341.754 163.163 342.024 161.396 342.275 159.629C342.829 155.767 343.419 151.906 344.043 148.044C344.043 147.938 344.246 147.967 344.237 148.044C344.151 151.991 343.868 155.932 343.386 159.851C343.135 161.724 342.852 163.594 342.536 165.46C342.344 167.254 341.912 169.014 341.252 170.693C340.977 171.352 340.542 171.932 339.985 172.379C339.428 172.826 338.767 173.126 338.064 173.251H337.967C337.985 173.263 338 173.278 338.01 173.297C338.02 173.316 338.025 173.336 338.025 173.358C338.025 173.985 338.025 174.622 337.948 175.288C337.87 175.955 337.764 176.524 337.648 177.132C337.535 177.755 337.374 178.369 337.165 178.967C336.991 179.551 336.709 180.098 336.335 180.579C336.324 180.603 336.306 180.622 336.282 180.634C336.259 180.645 336.232 180.647 336.207 180.64C336.182 180.633 336.161 180.617 336.147 180.595C336.133 180.573 336.128 180.547 336.132 180.521C336.132 180.415 336.132 180.318 336.132 180.212V180.164C336.118 179.984 336.118 179.803 336.132 179.623C336.132 179.324 336.238 179.025 336.306 178.725C336.441 178.136 336.605 177.538 336.76 176.959C336.914 176.379 337.049 175.771 337.194 175.182C337.339 174.593 337.552 173.985 337.697 173.377C337.692 173.368 337.69 173.358 337.69 173.348C337.69 173.338 337.692 173.328 337.697 173.319C337.13 173.344 336.569 173.196 336.089 172.894C335.609 172.592 335.233 172.151 335.011 171.629C334.813 170.829 334.826 169.99 335.05 169.196Z" fill="black"/>
<path d="M327.921 184.499C329.193 183.526 330.532 182.645 331.93 181.863C333.396 180.976 334.919 180.186 336.489 179.498C339.571 178.156 342.749 177.248 345.927 176.196C346.024 176.196 346.091 176.321 345.995 176.36C342.913 177.586 339.967 179.208 336.991 180.666C335.523 181.38 334.093 182.056 332.548 182.722C331.002 183.388 329.582 184.122 328.036 184.711C328.01 184.717 327.982 184.715 327.957 184.703C327.932 184.692 327.911 184.673 327.898 184.649C327.885 184.625 327.88 184.597 327.884 184.57C327.888 184.543 327.901 184.518 327.921 184.499Z" fill="#37474F"/>
<path d="M303.876 160.72C306.05 160.72 313.536 160.17 315.758 157.688C316.995 156.215 317.936 154.517 318.531 152.687C319.226 150.706 319.787 148.681 320.212 146.624C320.212 146.601 320.221 146.579 320.237 146.563C320.253 146.547 320.275 146.538 320.299 146.538C320.322 146.538 320.344 146.547 320.36 146.563C320.376 146.579 320.385 146.601 320.385 146.624C320.435 148.949 320.142 151.269 319.516 153.508C318.994 155.439 318.289 157.534 316.753 158.866C315.045 160.142 312.999 160.891 310.87 161.019C308.545 161.291 306.193 161.259 303.876 160.923C303.731 160.952 303.731 160.72 303.876 160.72Z" fill="black"/>
<path d="M355.124 161.299C354.036 160.957 353.044 160.365 352.226 159.571C350.593 157.1 350.197 149.27 350.052 147.204C350.052 147.107 350.004 147.136 350.004 147.204C350.004 149.521 350.081 151.867 350.274 154.097C350.356 155.909 350.641 157.707 351.124 159.455C351.627 160.855 354.38 161.821 355.095 161.502C355.172 161.512 355.172 161.299 355.124 161.299Z" fill="#37474F"/>
<path d="M283.629 356.154C286.111 355.97 288.642 355.97 291.144 355.97C293.646 355.97 296.158 355.97 298.67 355.97C303.674 356.018 308.687 356.096 313.691 356.241C315.063 356.241 316.425 356.318 317.797 356.376C319.169 356.434 320.695 356.694 322.183 356.752C322.206 356.752 322.228 356.761 322.244 356.778C322.26 356.794 322.269 356.816 322.269 356.839C322.269 356.862 322.26 356.884 322.244 356.901C322.228 356.917 322.206 356.926 322.183 356.926C320.946 356.926 319.719 357.119 318.483 357.158C317.246 357.196 315.932 357.158 314.619 357.158H307.103C302.099 357.158 297.085 357.051 292.091 356.839C289.261 356.723 286.401 356.685 283.59 356.405C283.566 356.391 283.546 356.371 283.534 356.346C283.522 356.321 283.517 356.293 283.522 356.266C283.526 356.238 283.538 356.213 283.558 356.193C283.577 356.173 283.602 356.159 283.629 356.154Z" fill="#37474F"/>
<path d="M288.826 350.612C288.757 350.611 288.69 350.596 288.627 350.568C288.565 350.539 288.509 350.499 288.462 350.448C288.416 350.397 288.381 350.338 288.359 350.273C288.337 350.208 288.328 350.14 288.333 350.071L297.916 185.088C297.79 184.364 295.085 175.153 294.844 170.442C294.583 165.47 299.732 146.074 299.954 145.254C299.993 145.122 300.08 145.011 300.199 144.942C300.318 144.874 300.459 144.854 300.592 144.887C300.723 144.923 300.834 145.009 300.903 145.126C300.971 145.243 300.991 145.383 300.959 145.514C300.901 145.717 295.636 165.576 295.878 170.394C296.119 175.211 298.93 184.875 298.95 184.972C298.969 185.068 289.289 350.062 289.289 350.062C289.3 350.196 289.257 350.329 289.171 350.432C289.084 350.535 288.96 350.6 288.826 350.612Z" fill="black"/>
<path d="M346.004 44.4426C346.004 44.4426 337.474 38.4858 327.099 45.8811C314.773 54.6859 314.483 89.4996 313.43 92.5021C312.377 95.5046 310.977 96.0839 310.213 98.7871C309.45 101.49 311.537 103.547 311.701 104.58C311.865 105.613 308.562 110.324 308.562 110.324C308.562 110.324 323.274 115.991 332.992 115.151C342.71 114.311 354.109 109.001 354.109 109.001C354.109 109.001 352.293 105.709 352.448 104.271C352.602 102.832 354.515 101.085 354.669 98.4781C354.824 95.8715 351.202 92.2125 350.96 90.7546C350.718 89.2968 355.655 63.4617 354.389 54.068C353.124 44.6743 346.004 44.4426 346.004 44.4426Z" fill="#263238"/>
<path d="M354.631 108.326C353.888 107.26 353.296 106.097 352.873 104.869C352.771 104.558 352.748 104.226 352.805 103.904C353.51 101.857 355.558 100.197 355.452 97.8989C355.181 96.1225 353.655 94.5102 352.67 93.0717C351.994 92.2744 351.552 91.3051 351.395 90.2719C351.395 89.8954 351.452 89.5962 351.491 89.2583C353.046 78.4743 355.065 67.6035 354.476 56.6651C354.417 54.0627 353.835 51.4987 352.766 49.125C353.976 51.4268 354.693 53.9552 354.872 56.5492C355.886 67.5166 353.906 78.4936 352.225 89.2872C352.225 89.5962 352.129 89.9341 352.119 90.2044C352.287 91.0846 352.668 91.9102 353.23 92.6083C354.254 94.2109 355.751 95.8329 355.983 97.812C356.051 100.255 353.945 101.857 353.085 103.923C353.008 104.218 353.008 104.527 353.085 104.821C353.447 106.051 353.967 107.229 354.631 108.326Z" fill="#263238"/>
<path d="M307.914 108.866C308.677 107.602 309.75 105.97 310.407 104.734V104.686C310.32 104.469 310.21 104.261 310.078 104.068C308.897 102.485 308.387 100.502 308.658 98.5458C309.064 96.2384 310.88 94.4523 311.875 92.4829C312.467 91.1278 312.773 89.6652 312.773 88.1867C313.836 75.4525 316.029 53.9233 326.81 45.7074C328.041 44.7938 329.42 44.0983 330.886 43.651C329.461 44.1786 328.131 44.9315 326.945 45.8812C316.705 54.4253 314.763 75.5491 313.498 88.2253C313.485 89.7957 313.129 91.3444 312.455 92.7628C311.353 94.8289 309.615 96.3349 309.122 98.623C308.852 100.086 309.087 101.597 309.788 102.91C310.03 103.431 310.339 103.875 310.59 104.435C310.631 104.523 310.651 104.618 310.648 104.715C309.804 106.14 308.885 107.519 307.895 108.847L307.914 108.866Z" fill="#263238"/>
<path d="M339.069 100.737C350.506 120.423 364.61 141.479 373.903 143.004C381.139 144.201 399.02 141.315 416.872 133.659C420.272 132.201 405.173 107.341 402.661 108.007C395.977 109.783 376.917 116.155 375.951 115.354C374.637 114.302 359.249 100.515 348.632 91.7877C334.287 80.0383 333.157 90.5519 339.069 100.737Z" fill="#AD6359"/>
<path d="M412.379 135.551C415.499 135.117 429.574 131.863 433.293 130.077C437.013 128.291 447.33 122.353 446.257 119.409C445.185 116.464 442.017 117.912 442.017 117.912C442.017 117.912 445.987 114.726 444.625 111.83C443.263 108.934 438.423 111.396 438.423 111.396C438.423 111.396 442.287 107.833 440.703 105.033C439.119 102.234 434.685 105.535 434.685 105.535C434.685 105.535 438.346 102.436 436.085 100.708C433.371 98.5843 427.275 105.053 423.025 106.713C422.059 107.1 402.922 112.969 402.922 112.969L412.379 135.551Z" fill="#AD6359"/>
<path d="M435.071 105.255C430.579 110.005 427.797 111.309 421.547 112.902C421.431 112.902 421.44 113.114 421.547 113.095C427.797 112.129 431.526 110.971 435.274 105.468C435.496 105.198 435.293 105.033 435.071 105.255Z" fill="#263238"/>
<path d="M438.742 111.009C433.642 115.537 430.628 116.976 424.252 119.119C424.165 119.119 424.252 119.303 424.3 119.283C430.763 117.7 434.453 116.493 438.955 111.309C439.167 111.067 439.013 110.807 438.742 111.009Z" fill="#263238"/>
<path d="M441.688 118.009C436.443 122.035 433.207 123.753 426.715 125.037C426.689 125.045 426.666 125.061 426.649 125.082C426.633 125.104 426.624 125.131 426.624 125.158C426.624 125.185 426.633 125.212 426.649 125.234C426.666 125.255 426.689 125.271 426.715 125.279C433.477 124.613 437.515 122.498 441.766 118.183C442.084 117.893 442.017 117.758 441.688 118.009Z" fill="#263238"/>
<path d="M398.556 111.907C398.556 111.907 403.637 105.478 406.487 103.151C409.336 100.824 423.179 96.0549 424.377 98.9802C425.933 102.765 418.485 107.09 414.563 108.731C414.563 108.731 418.156 117.468 413.481 121.726C408.805 125.984 398.556 111.907 398.556 111.907Z" fill="#AD6359"/>
<path d="M424.464 100.129C423.392 104.599 418.098 106.424 414.418 108.297C414.362 108.321 414.313 108.359 414.275 108.407C414.237 108.454 414.212 108.511 414.2 108.57C414.189 108.63 414.192 108.692 414.21 108.75C414.228 108.808 414.259 108.861 414.302 108.905C415.567 112.67 416.234 118.347 413.741 121.716C413.728 121.736 413.723 121.759 413.726 121.783C413.729 121.806 413.741 121.828 413.758 121.843C413.776 121.858 413.799 121.867 413.823 121.867C413.846 121.866 413.869 121.858 413.886 121.842C417.065 118.598 416.842 112.96 415.2 108.934C419.064 107.061 424.232 105.004 424.513 100.139L424.464 100.129Z" fill="#263238"/>
<path d="M397.049 108.75L410.94 138.447C410.94 138.447 381.554 146.943 372.048 143.448C362.542 139.953 345.038 115.132 337.745 98.9899C330.239 82.4713 340.952 84.5083 348.371 91.1216C355.79 97.7348 375.622 114.466 376.27 114.611C376.917 114.755 397.049 108.75 397.049 108.75Z" fill="#04599C"/>
<path d="M396.778 124.767C395.87 122.72 394.953 120.68 394.025 118.646C393.059 116.619 392.228 114.533 391.127 112.574C391.079 112.487 390.924 112.574 390.953 112.631C391.63 114.678 392.538 116.667 393.359 118.656C394.18 120.645 395.117 122.875 396.006 124.979C397.764 129.14 399.686 133.224 401.676 137.289C401.724 137.385 401.86 137.289 401.821 137.211C400.256 133.021 398.604 128.87 396.778 124.767Z" fill="#263238"/>
<path opacity="0.1" d="M337.745 98.9898C345.087 115.132 362.552 139.944 372.048 143.4C374.26 144.211 377.554 144.365 381.303 144.143L339.986 86.3522C335.571 85.4737 332.963 88.4859 337.745 98.9898Z" fill="black"/>
<path d="M353.24 131.573L355.124 148.208C355.124 148.208 352.853 148.102 345.347 147.686L343.58 141.643L340.092 147.435L292.642 143.719L299.916 130.695C305.635 118.086 312.889 99.067 322.434 89.9823C330.017 82.7608 338.296 83.8807 343.242 89.5961C344.488 91.0442 356.689 111.492 357.848 119.679C358.852 126.93 353.24 131.573 353.24 131.573Z" fill="#04599C"/>
<path d="M426.376 22.8327C426.411 18.5029 425.791 14.1928 424.539 10.0481C424.499 14.3781 425.119 18.6889 426.376 22.8327Z" fill="#263238"/>
<path d="M456.796 26.2419C458.996 22.5114 460.618 18.4692 461.607 14.2528C459.411 17.9852 457.789 22.0268 456.796 26.2419Z" fill="#263238"/>
<path d="M481.448 44.4054C485.218 42.263 488.644 39.5654 491.61 36.4032C487.838 38.5342 484.412 41.226 481.448 44.3864V44.4054Z" fill="#263238"/>
<path d="M493.713 72.4557C498.042 72.4889 502.352 71.8728 506.499 70.628C502.169 70.5901 497.859 71.2063 493.713 72.4557Z" fill="#263238"/>
<path d="M389.014 118.224C385.245 120.361 381.82 123.052 378.852 126.208C382.62 124.07 386.045 121.379 389.014 118.224Z" fill="#263238"/>
<path d="M376.749 90.1742C372.419 90.1316 368.108 90.7479 363.964 92.0019C368.293 92.0398 372.604 91.4236 376.749 90.1742Z" fill="#263238"/>
<path d="M380.159 59.7469C376.427 57.5487 372.385 55.9268 368.169 54.9362C371.9 57.1352 375.942 58.7571 380.159 59.7469Z" fill="#263238"/>
<path d="M398.295 35.0963C396.173 31.329 393.49 27.9059 390.339 24.9445C392.467 28.7081 395.149 32.1303 398.295 35.0963Z" fill="#263238"/>
<g opacity="0.5">
<path d="M385.406 93.3845C392.982 124.238 420.542 129.446 420.542 129.446C423.232 133.888 428.583 147.591 428.583 147.591L462.611 142.07C462.611 142.07 462.999 127.448 464.145 122.382C464.145 122.382 488.665 108.735 486.089 77.0677C484.309 55.0593 463.634 25.4559 427.21 31.3463L426.831 31.4126C390.416 37.3503 380.149 71.9349 385.406 93.3845Z" fill="#FFC727"/>
<path d="M385.406 93.3845C389.412 110.923 403.078 125.384 420.447 129.484C423.705 135.242 425.922 141.795 428.554 147.686L462.715 142.203C462.876 137.221 463.104 132.24 463.577 127.287C463.717 125.653 463.947 124.028 464.269 122.42L464.183 122.533C468.119 120.087 471.658 117.053 474.677 113.537C483.987 103.12 487.936 88.5642 486.042 74.7948C483.362 56.5744 470.68 39.6515 453.169 33.3444C444.475 30.1341 434.928 29.7931 425.865 31.4504C396.392 36.1854 379.127 64.8228 385.377 93.3656L385.406 93.3845ZM385.406 93.3845C379.231 64.9744 396.524 36.318 425.94 31.6966C434.966 30.0488 444.456 30.4087 453.093 33.5906C470.453 39.8977 483.002 56.7354 485.625 74.8232C488.211 93.1667 479.943 112.372 464.06 122.173H463.984V122.249C463.665 123.874 463.434 125.514 463.293 127.164C462.838 132.089 462.63 137.032 462.479 141.975L462.602 141.833L428.602 147.487C426.376 141.282 423.718 135.241 420.646 129.409C403.097 125.204 389.488 110.895 385.444 93.4224L385.406 93.3845Z" fill="#263238"/>
</g>
<path d="M454.644 87.9346L457.485 88.0026L456.086 146.492L453.246 146.424L454.644 87.9346Z" fill="#263238"/>
<path d="M418.663 93.7716L438.454 148.829L435.78 149.79L415.99 94.7326L418.663 93.7716Z" fill="#263238"/>
<path d="M438.877 110.071C439.172 110.069 439.467 110.044 439.758 109.995C442.987 109.474 445.44 106.018 446.937 101.86C447.379 102.276 447.903 102.594 448.476 102.794C449.048 102.995 449.656 103.074 450.261 103.025C455.621 102.154 455.943 90.7803 455.943 90.2973H454.996C454.996 90.411 454.646 101.377 450.062 102.116C449.531 102.127 449.004 102.027 448.515 101.821C448.025 101.616 447.584 101.31 447.221 100.923C448.318 97.5339 448.663 93.9469 448.234 90.411C447.732 87.3142 446.283 85.7233 444.238 86.0547C443.634 86.1307 443.064 86.3728 442.591 86.7541C442.118 87.1354 441.76 87.6409 441.557 88.2139C440.392 91.2727 442.504 96.8695 445.213 100.184C445.507 100.545 445.823 100.886 446.16 101.207C444.815 105.232 442.533 108.612 439.587 109.095C437.381 109.446 434.852 108.063 432.532 105.194C432.342 104.957 432.143 104.711 431.954 104.455C433.701 101.405 434.311 97.8358 433.678 94.3789C433.034 90.4015 431.139 88.1855 428.734 88.5738C428.265 88.6482 427.827 88.8515 427.467 89.1609C427.108 89.4703 426.841 89.8736 426.698 90.3257C425.552 93.3277 427.484 99.739 430.817 104.531C430.008 105.616 428.81 106.346 427.474 106.567C424.207 107.116 420.068 99.7674 418.752 96.8979L417.89 97.2957C418.098 97.7408 422.985 108.253 427.626 107.504C429.12 107.26 430.469 106.471 431.414 105.288C431.547 105.478 431.698 105.658 431.84 105.838C433.469 107.788 435.97 110.071 438.877 110.071ZM429.274 89.4355C431.234 89.4355 432.38 92.0966 432.759 94.4925C433.308 97.6042 432.847 100.81 431.443 103.641C428.44 99.1992 426.631 93.3088 427.654 90.6666C427.742 90.3699 427.91 90.1035 428.141 89.8976C428.372 89.6917 428.656 89.5547 428.961 89.5018L429.274 89.4355ZM444.777 86.926C446.482 86.926 447.107 89.142 447.334 90.5246C447.723 93.7524 447.436 97.0257 446.492 100.137C446.321 99.9473 446.151 99.7579 445.98 99.5495C443.499 96.5002 441.453 91.2254 442.476 88.5169C442.618 88.0975 442.877 87.7274 443.223 87.4505C443.569 87.1736 443.987 87.0015 444.427 86.9544L444.777 86.926Z" fill="#263238"/>
<path d="M422.81 148.506L467.984 141.19L472.01 166.047L426.836 173.363L422.81 148.506Z" fill="#C7C7C7"/>
<path d="M431.973 172.554C435.402 176.825 441.179 180.215 450.915 178.643C460.651 177.071 465.045 172.014 466.939 166.891L431.973 172.554Z" fill="#C7C7C7"/>
<path d="M431.973 172.554C432.991 173.832 434.187 174.958 435.525 175.897L466.238 168.473C466.49 167.958 466.715 167.43 466.911 166.891L431.973 172.554Z" fill="#A6A6A6"/>
<path d="M422.275 153.482L470.803 150.148L470.453 147.979L421.925 151.313L422.275 153.482Z" fill="#A6A6A6"/>
<path d="M423.336 160.044L471.874 156.711L471.523 154.542L422.986 157.866L423.336 160.044Z" fill="#A6A6A6"/>
<path d="M424.406 166.597L472.934 163.273L472.584 161.105L424.046 164.429L424.406 166.597Z" fill="#A6A6A6"/>
<g opacity="0.7">
<path d="M475.008 68.0616C473.398 68.6014 469.875 60.4098 459.079 51.9625C454.277 48.2313 437.902 45.2482 438.243 39.9924C438.584 34.7365 453.197 37.7195 461.456 44.6422C474.677 55.8263 476.476 67.5597 475.008 68.0616Z" fill="white"/>
<path d="M393.048 86.4335C389.999 86.9259 389.26 82.1909 392.281 81.6984C395.302 81.206 396.098 85.941 393.048 86.4335Z" fill="white"/>
<path d="M413.723 120.687C412.264 122.23 402.964 116.084 397.878 107.769C393.654 100.875 391.628 91.6136 393.569 90.7234C395.511 89.8332 398.911 102.457 402.093 106.822C406.175 112.258 415.276 119.048 413.723 120.687Z" fill="white"/>
</g>
<path d="M333.842 127.026C336.815 127.351 339.757 127.91 342.642 128.696C344.072 129.121 345.473 129.604 346.874 130.125C347.579 130.386 348.274 130.618 348.98 130.849C349.713 131.108 350.475 131.273 351.25 131.342C351.317 131.342 351.317 131.448 351.25 131.458C350.518 131.483 349.785 131.461 349.057 131.39C348.354 131.291 347.66 131.139 346.98 130.936C345.531 130.531 344.082 130.048 342.633 129.623C339.735 128.774 336.779 127.914 333.803 127.296C333.668 127.268 333.707 127.016 333.842 127.026Z" fill="#263238"/>
<path d="M326.491 129.836C328.936 129.585 331.394 129.478 333.852 129.517C335.079 129.517 336.296 129.652 337.523 129.797C338.102 129.865 338.691 129.942 339.271 130.029C339.851 130.116 340.536 130.318 341.203 130.405C341.261 130.405 341.261 130.521 341.203 130.521C340.594 130.453 339.976 130.521 339.368 130.521L337.532 130.453C336.315 130.405 335.088 130.376 333.861 130.318C331.408 130.202 328.964 130.116 326.51 130.096C326.346 130.058 326.365 129.855 326.491 129.836Z" fill="#263238"/>
<path d="M339.938 94.4619C342.575 100.312 345.077 106.221 347.154 112.294C349.588 119.399 351.231 124.844 343.754 129.44L343.87 129.247C343.87 131.313 343.87 133.369 343.763 135.435C343.657 137.501 343.647 139.558 343.58 141.624C343.532 139.558 343.464 137.491 343.454 135.435C343.445 133.379 343.454 131.226 343.454 129.121L343.57 129.054C350.767 124.555 349.067 119.264 346.787 112.429C344.749 106.356 342.401 100.39 339.967 94.4619H339.938Z" fill="#263238"/>
<path d="M343.241 104.058C343.236 104.263 343.152 104.458 343.006 104.602C342.86 104.746 342.664 104.828 342.459 104.831C342.357 104.831 342.255 104.81 342.161 104.771C342.067 104.732 341.981 104.674 341.909 104.601C341.837 104.528 341.78 104.442 341.742 104.347C341.704 104.252 341.685 104.151 341.686 104.049C341.685 103.946 341.704 103.844 341.743 103.749C341.782 103.654 341.84 103.568 341.913 103.496C341.986 103.424 342.073 103.367 342.168 103.33C342.264 103.292 342.366 103.274 342.469 103.276C342.571 103.276 342.672 103.297 342.767 103.336C342.861 103.375 342.947 103.433 343.018 103.506C343.09 103.579 343.147 103.665 343.185 103.76C343.224 103.855 343.243 103.956 343.241 104.058Z" fill="#263238"/>
<path d="M345.27 112.834C345.269 112.936 345.248 113.036 345.208 113.129C345.168 113.222 345.11 113.307 345.037 113.378C344.965 113.448 344.879 113.504 344.784 113.542C344.69 113.579 344.589 113.598 344.488 113.597C344.385 113.598 344.283 113.579 344.188 113.54C344.093 113.501 344.007 113.443 343.935 113.37C343.863 113.297 343.806 113.21 343.768 113.115C343.731 113.02 343.712 112.917 343.715 112.815C343.715 112.713 343.735 112.611 343.775 112.517C343.814 112.423 343.872 112.337 343.945 112.265C344.018 112.193 344.104 112.137 344.199 112.099C344.294 112.06 344.395 112.041 344.498 112.043C344.704 112.048 344.901 112.133 345.045 112.281C345.19 112.429 345.27 112.628 345.27 112.834Z" fill="#263238"/>
<path d="M347.067 120.857C347.067 121.012 347.021 121.164 346.934 121.292C346.848 121.421 346.725 121.521 346.582 121.58C346.438 121.639 346.28 121.654 346.128 121.623C345.976 121.592 345.837 121.517 345.728 121.406C345.619 121.296 345.545 121.156 345.516 121.004C345.487 120.851 345.504 120.694 345.564 120.551C345.625 120.408 345.727 120.287 345.857 120.202C345.987 120.117 346.139 120.073 346.294 120.075C346.396 120.075 346.498 120.095 346.592 120.135C346.686 120.174 346.772 120.232 346.844 120.305C346.916 120.377 346.973 120.464 347.011 120.558C347.049 120.653 347.068 120.755 347.067 120.857Z" fill="#263238"/>
<path d="M342.14 128.049C342.152 128.159 342.141 128.269 342.108 128.374C342.074 128.479 342.019 128.576 341.946 128.658C341.872 128.74 341.782 128.805 341.682 128.85C341.581 128.895 341.473 128.918 341.363 128.918C341.252 128.918 341.144 128.895 341.043 128.85C340.943 128.805 340.853 128.74 340.779 128.658C340.706 128.576 340.651 128.479 340.617 128.374C340.584 128.269 340.573 128.159 340.585 128.049C340.584 127.947 340.603 127.845 340.642 127.75C340.681 127.655 340.739 127.569 340.812 127.497C340.885 127.425 340.972 127.368 341.067 127.33C341.163 127.293 341.265 127.274 341.367 127.277C341.572 127.277 341.769 127.358 341.914 127.503C342.059 127.648 342.14 127.845 342.14 128.049Z" fill="#263238"/>
<path d="M341.763 136.043C341.762 136.146 341.741 136.247 341.7 136.342C341.66 136.436 341.601 136.522 341.527 136.593C341.454 136.665 341.367 136.722 341.271 136.76C341.176 136.798 341.074 136.817 340.971 136.816C340.87 136.814 340.769 136.793 340.676 136.753C340.583 136.713 340.498 136.655 340.428 136.583C340.357 136.51 340.301 136.424 340.263 136.33C340.226 136.236 340.207 136.135 340.208 136.034C340.229 135.842 340.321 135.666 340.464 135.538C340.607 135.409 340.793 135.338 340.986 135.338C341.178 135.338 341.364 135.409 341.507 135.538C341.651 135.666 341.742 135.842 341.763 136.034V136.043Z" fill="#263238"/>
<path d="M331.398 87.2598C331.514 88.3411 335.668 95.717 340.469 96.0742C342.034 96.1901 343.039 87.6942 343.039 87.6942L343.251 87.086L346.294 78.5322L336.779 70.6543L335.388 69.5923C335.388 69.5923 334.712 71.9866 333.9 74.9698L333.785 75.3946C333.785 75.5683 333.678 75.7228 333.64 75.8869C333.514 76.331 333.388 76.7848 333.273 77.2386C333.157 77.6923 333.089 77.924 333.002 78.2909L332.741 79.3818C332.108 81.9728 331.659 84.6054 331.398 87.2598Z" fill="#AD6359"/>
<path d="M333.9 74.9698C334.486 77.5465 335.626 79.965 337.241 82.0572C338.855 84.1495 340.906 85.8655 343.251 87.086L346.294 78.5322L336.779 70.6543L335.388 69.5923C335.388 69.5923 334.712 71.9866 333.9 74.9698Z" fill="#263238"/>
<path d="M358.505 61.975C362.089 77.4896 353.192 81.3803 349.811 82.1526C346.777 82.8477 336.335 84.8269 331.176 69.766C326.018 54.7052 332.142 48.1402 338.972 46.1804C345.802 44.2206 354.931 46.4604 358.505 61.975Z" fill="#AD6359"/>
<path d="M355.79 61.1833C355.422 61.1881 355.054 61.1688 354.689 61.1254C354.299 61.1654 353.906 61.0699 353.578 60.8551C353.488 60.77 353.429 60.6576 353.41 60.5353C353.39 60.413 353.412 60.2878 353.472 60.1793C353.623 59.981 353.825 59.8265 354.056 59.7315C354.286 59.6366 354.538 59.6045 354.786 59.6386C355.299 59.6345 355.797 59.8162 356.186 60.1503C356.268 60.2335 356.324 60.3384 356.348 60.4525C356.371 60.5666 356.362 60.6851 356.32 60.7939C356.278 60.9028 356.206 60.9973 356.112 61.0664C356.018 61.1354 355.907 61.176 355.79 61.1833Z" fill="#263238"/>
<path d="M345.212 62.4769C345.56 62.3668 345.902 62.2379 346.236 62.0908C346.617 62.0004 346.956 61.7865 347.202 61.4825C347.262 61.3734 347.283 61.2471 347.262 61.1244C347.241 61.0016 347.179 60.8896 347.086 60.8067C346.883 60.6627 346.644 60.5767 346.396 60.558C346.147 60.5392 345.898 60.5885 345.676 60.7005C345.177 60.8619 344.759 61.2072 344.507 61.666C344.463 61.7691 344.45 61.8822 344.467 61.9927C344.485 62.1032 344.533 62.2065 344.607 62.2909C344.68 62.3753 344.776 62.4375 344.883 62.4704C344.99 62.5033 345.104 62.5055 345.212 62.4769Z" fill="#263238"/>
<path d="M348.004 65.1223C348.004 65.1223 347.936 65.1802 347.936 65.2285C348.168 66.2905 348.255 67.5456 347.347 68.0669C347.347 68.0669 347.347 68.1441 347.347 68.1248C348.516 67.7483 348.39 66.0878 348.004 65.1223Z" fill="#263238"/>
<path d="M346.854 64.1762C345.106 64.3596 345.598 67.8255 347.212 67.6517C348.825 67.478 348.313 64.0217 346.854 64.1762Z" fill="#263238"/>
<path d="M346.198 64.4562C345.918 64.6975 345.676 65.0837 345.309 65.1706C344.942 65.2575 344.527 64.9582 344.198 64.6493C344.198 64.6493 344.14 64.6493 344.198 64.6493C344.275 65.3154 344.633 65.9526 345.357 65.9526C346.082 65.9526 346.401 65.2961 346.478 64.6106C346.439 64.5334 346.304 64.4079 346.198 64.4562Z" fill="#263238"/>
<path d="M353.897 63.761C353.897 63.761 353.994 63.761 353.994 63.8479C354.109 64.9292 354.409 66.1456 355.433 66.3677V66.4352C354.225 66.4256 353.829 64.8037 353.897 63.761Z" fill="#263238"/>
<path d="M354.699 62.477C356.408 62.1101 357.007 65.5568 355.423 65.8947C353.839 66.2326 353.279 62.8149 354.699 62.477Z" fill="#263238"/>
<path d="M355.471 62.6121C355.771 62.7473 356.099 63.0369 356.437 62.9983C356.776 62.9597 357.036 62.5349 357.21 62.139C357.21 62.139 357.268 62.139 357.278 62.139C357.403 62.7955 357.278 63.5196 356.698 63.7513C356.119 63.983 355.616 63.481 355.346 62.8535C355.288 62.7569 355.346 62.5638 355.471 62.6121Z" fill="#263238"/>
<path d="M349.26 74.1877C349.54 74.4194 349.83 74.738 350.226 74.738C350.625 74.6872 351.009 74.5558 351.356 74.3518C351.356 74.3518 351.433 74.3518 351.414 74.3518C351.28 74.5794 351.088 74.7668 350.857 74.8942C350.625 75.0217 350.364 75.0844 350.1 75.0759C349.87 75.0422 349.655 74.9406 349.483 74.7841C349.311 74.6276 349.19 74.4233 349.134 74.1974C349.134 74.1877 349.212 74.1587 349.26 74.1877Z" fill="#263238"/>
<path d="M353.143 69.6308C353.143 69.6308 353.607 71.1948 353.723 71.9479C353.723 72.0155 353.559 72.083 353.307 72.1313C352.677 72.3506 351.998 72.3919 351.345 72.2505C350.692 72.1091 350.091 71.7906 349.608 71.33C349.591 71.3172 349.58 71.2983 349.577 71.2775C349.575 71.2567 349.58 71.2356 349.593 71.219C349.606 71.2023 349.625 71.1915 349.646 71.1887C349.666 71.186 349.688 71.1917 349.704 71.2045C350.77 71.7161 351.973 71.8686 353.134 71.6389C353.134 71.4265 352.245 68.984 352.361 68.955C352.956 68.9183 353.554 68.9605 354.138 69.0805C353.259 65.7884 351.858 62.67 351.028 59.4262C351.028 59.3103 351.173 59.2427 351.221 59.3489C352.825 62.6506 354.094 66.1049 355.008 69.6598C355.104 70.0363 353.462 69.7081 353.143 69.6308Z" fill="#263238"/>
<path d="M353.192 71.8707C352.863 72.5495 352.368 73.1341 351.752 73.5698C351.409 73.7963 351.004 73.911 350.593 73.8981C349.695 73.8981 349.511 73.0871 349.521 72.3823C349.531 72.0108 349.583 71.6416 349.675 71.2817C350.757 71.8424 351.987 72.0485 353.192 71.8707Z" fill="#263238"/>
<path d="M351.801 73.5699C351.458 73.7964 351.053 73.9111 350.641 73.8981C349.743 73.8981 349.56 73.0872 349.569 72.3824C350.021 72.3005 350.486 72.3731 350.891 72.5886C351.296 72.8041 351.617 73.1498 351.801 73.5699Z" fill="#FF9ABB"/>
<path d="M331.33 70.6253C332.315 70.0496 333.132 69.2281 333.703 68.2413C334.274 67.2546 334.578 66.1365 334.586 64.9968C337.273 63.5582 339.53 61.4327 341.126 58.8373C341.049 59.1752 340.459 61.5985 340.16 62.8342C350.119 60.1503 352.641 52.2144 352.641 52.2144C354.713 53.8399 356.39 55.9125 357.548 58.2773C357.548 58.2773 357.133 52.0696 353.626 48.1789C352.483 46.8088 350.995 45.768 349.316 45.1639C347.637 44.5598 345.827 44.4141 344.072 44.7419C341.529 44.3337 338.923 44.6176 336.528 45.5639C334.133 46.5101 332.037 48.0838 330.461 50.1194C324.423 57.785 331.33 70.6253 331.33 70.6253Z" fill="#263238"/>
<path d="M347.676 60.5461C346.122 61.5608 344.426 62.3385 342.643 62.8535C342.643 62.8535 342.643 62.8535 342.643 62.8535C345.423 61.8543 347.869 60.0988 349.704 57.785C350.486 56.8026 351.136 55.7217 351.636 54.5701C352.244 53.3367 352.599 51.9941 352.679 50.6214C352.679 50.6009 352.688 50.5813 352.702 50.5668C352.717 50.5523 352.736 50.5442 352.757 50.5442C352.777 50.5442 352.797 50.5523 352.811 50.5668C352.826 50.5813 352.834 50.6009 352.834 50.6214C352.901 51.9842 352.738 53.3485 352.351 54.657C351.908 55.943 351.234 57.1373 350.361 58.1808C349.582 59.0971 348.678 59.8998 347.676 60.5654" fill="#263238"/>
<path d="M333.948 70.3935C333.948 70.3935 329.804 65.9525 327.747 67.4972C325.689 69.0419 329.283 75.8096 332.036 76.4179C332.385 76.5198 332.75 76.5504 333.111 76.5079C333.472 76.4653 333.821 76.3505 334.137 76.1703C334.452 75.9901 334.728 75.7481 334.948 75.4589C335.168 75.1697 335.328 74.8391 335.417 74.487L333.948 70.3935Z" fill="#AD6359"/>
<path d="M328.829 69.4089V69.4861C330.761 69.9688 331.987 71.5425 332.915 73.2127C332.782 73.0435 332.615 72.9049 332.423 72.8067C332.232 72.7085 332.022 72.6528 331.807 72.6437C331.592 72.6345 331.378 72.672 331.179 72.7535C330.98 72.8351 330.801 72.9588 330.654 73.1161C330.654 73.1161 330.654 73.232 330.712 73.2127C331.027 73.0545 331.383 73.0001 331.73 73.0573C332.078 73.1146 332.398 73.2805 332.644 73.5313C333.043 73.9381 333.399 74.3845 333.707 74.8636C333.823 75.0181 334.103 74.8636 334.016 74.7091C333.659 72.3148 331.379 69.293 328.829 69.4089Z" fill="#263238"/>
<path d="M343.28 87.1149L340.131 94.2302L331.437 84.7786L328.829 87.5783C328.829 87.5783 337.098 102.398 337.175 101.741L340.373 95.6301L344.507 100.11V89.2292L343.28 87.1149Z" fill="#EBEBEB"/>
<path d="M344.835 94.7708C344.778 92.9751 344.778 91.1601 344.642 89.374C344.642 89.3065 344.536 89.2775 344.517 89.374C344.101 91.0925 344.343 97.9568 344.275 99.598C344.101 99.4049 340.411 95.6494 340.411 95.7363C339.725 96.7017 337.378 101.152 337.223 101.529C335.91 99.1732 330.345 89.8857 328.78 87.6459C328.78 87.5783 328.635 87.6459 328.674 87.7038C329.804 90.1754 336.991 102.436 337.107 102.407C337.223 102.378 340.083 96.9817 340.45 95.939C341.068 96.7596 344.758 100.979 344.778 100.708C344.9 98.7315 344.919 96.7497 344.835 94.7708Z" fill="#263238"/>
<path d="M389.33 107.08C385.522 109.314 381.399 110.964 377.101 111.975C380.906 109.734 385.029 108.083 389.33 107.08Z" fill="#263238"/>
<path d="M322.492 106.356C328.288 131.583 343.561 162.911 352.487 163.529C362.427 164.224 354.815 129.739 353.453 128.976C352.487 128.426 341.918 116.339 331.089 101.452C320.26 86.5646 321.062 100.129 322.492 106.356Z" fill="#AD6359"/>
<path d="M353.607 128.851C351.897 126.852 337.465 107.515 331.031 99.3181C324.597 91.1215 319.613 92.7145 321.854 105.922C324.095 119.129 332.296 144.23 343.106 156.964C353.51 169.235 358.736 163.78 358.369 151.172C358.089 140.822 353.607 128.851 353.607 128.851Z" fill="#04599C"/>
<path d="M356.157 132.307C354.09 129.72 352.052 127.103 350.033 124.487C348.014 121.871 346.014 119.216 344.005 116.58L338.064 108.606L335.166 104.599C334.2 103.257 333.234 101.915 332.268 100.563C333.311 101.857 334.325 103.161 335.359 104.425L338.402 108.355L344.43 116.252C346.362 118.916 348.4 121.562 350.361 124.226C352.322 126.891 354.244 129.604 356.157 132.307Z" fill="#263238"/>
<path d="M336.972 106.627C336.505 105.888 336.092 105.117 335.735 104.319C335.555 103.933 335.381 103.537 335.214 103.132C335.05 102.726 334.905 102.321 334.76 101.906C335.272 102.615 335.709 103.375 336.064 104.174C336.433 104.965 336.737 105.786 336.972 106.627Z" fill="#263238"/>
<path d="M352.467 163.481C359.886 163.481 366.957 155.815 388.084 135.406C390.982 132.587 376.743 105.603 373.468 108.461C369.334 112.052 354.09 126.901 353.114 128.127C344.864 138.476 347.444 163.481 352.467 163.481Z" fill="#AD6359"/>
<path d="M367.382 116.223C367.382 116.223 373.178 106.771 377.323 100.776C379.612 97.4258 384.085 92.087 386.867 90.3492C391.069 87.8197 410.244 79.9321 412.263 84.5565C414.089 88.7272 396.74 93.4193 396.74 93.4193C396.74 93.4193 413.828 87.1439 415.094 92.5697C416.359 97.9954 396.073 100.679 396.073 100.679C396.073 100.679 413.761 94.6261 414.186 100.428C414.514 104.811 396.266 108.287 396.266 108.287C396.266 108.287 411.51 103.19 412.032 107.688C412.611 112.651 395.967 116.908 395.967 116.908C395.377 128.561 390.335 133.871 386.307 137.183C385.312 138.003 367.382 116.223 367.382 116.223Z" fill="#AD6359"/>
<path d="M390.692 95.186C392.672 94.3847 394.672 93.5448 396.72 92.9172C398.768 92.2897 400.835 91.7201 402.932 91.2856C405.654 90.6444 408.442 90.3205 411.239 90.3202C406.274 90.6677 398.923 92.811 396.875 93.4482C394.827 94.0854 392.759 94.5971 390.721 95.2343C390.663 95.3018 390.653 95.2053 390.692 95.186Z" fill="#263238"/>
<path d="M392.837 102.61C395.416 101.645 397.938 100.679 400.565 99.8587C403.193 99.0381 405.714 98.5167 408.361 97.9278C408.564 97.8795 408.525 98.005 408.361 98.063C405.733 98.7967 403.367 99.6753 400.749 100.438C398.131 101.201 395.494 101.857 392.914 102.716C392.818 102.687 392.798 102.629 392.837 102.61Z" fill="#263238"/>
<path d="M393.532 109.31C397.448 107.801 401.507 106.695 405.646 106.009C405.849 106.009 405.782 106.124 405.569 106.182C401.521 107.206 398.343 107.978 393.59 109.446C393.523 109.465 393.455 109.349 393.532 109.31Z" fill="#263238"/>
<path d="M370.551 110.343L379.158 147.146C379.158 147.146 359.838 164.418 352.303 163.761C347.357 163.317 343.928 137.878 353.907 127.132L370.551 110.343Z" fill="#04599C"/>
<path d="M347.743 143.95C347.658 137.771 349.848 131.775 353.897 127.103C353.945 127.055 354.051 127.103 354.003 127.181C350.226 132.278 348.052 141.18 347.859 143.97C347.859 144.037 347.743 144.028 347.743 143.95Z" fill="#263238"/>
<path d="M371.343 150.11C370.174 146.113 369.227 142.068 368.29 138.003C367.353 133.939 366.407 129.893 365.566 125.81C365.093 123.502 364.6 121.195 364.214 118.868C364.214 118.81 364.301 118.781 364.32 118.868C365.489 122.855 366.455 126.91 367.411 130.955C368.368 135.001 369.343 139.075 370.193 143.149C370.696 145.447 371.16 147.764 371.546 150.081C371.565 150.168 371.382 150.235 371.343 150.11Z" fill="#263238"/>
<path d="M370.271 110.092C369.001 111.101 367.8 112.195 366.677 113.365C365.518 114.495 364.378 115.653 363.258 116.822C361.016 119.139 355.993 123.792 352.631 128.629C352.631 128.629 353.047 128.629 353.085 128.532C354.563 126.148 369.324 111.985 370.358 110.701C370.416 110.816 370.464 110.923 370.532 111.039C370.599 111.154 370.715 111.106 370.715 111.039C370.715 110.971 370.657 110.565 370.648 110.324C370.654 110.278 370.647 110.23 370.627 110.188C370.607 110.146 370.575 110.11 370.535 110.085C370.495 110.061 370.449 110.048 370.402 110.05C370.355 110.051 370.309 110.066 370.271 110.092Z" fill="#263238"/>
<path d="M321.97 114.311C326.8 125.588 340.401 161.396 352.448 163.8C339.165 161.782 325.814 126.341 321.97 114.311Z" fill="#263238"/>
<path d="M321.786 116.542C322.827 117.91 323.717 119.386 324.443 120.944C323.168 119.75 322.248 118.226 321.786 116.542Z" fill="#263238"/>
<path d="M263.69 308.096C263.69 308.096 260.629 304.794 256.487 305.74C252.344 306.687 251.475 312.76 247.14 314.228C242.804 315.695 237.416 312.934 233.94 315.319C230.464 317.704 231.256 323.623 229.721 324.608C228.185 325.593 243.712 326.095 243.712 326.095C243.712 326.095 261.479 312.693 263.545 308.569" fill="#FFC727"/>
<path opacity="0.4" d="M263.69 308.096C263.69 308.096 260.629 304.794 256.487 305.74C252.344 306.687 251.475 312.76 247.14 314.228C242.804 315.695 237.416 312.934 233.94 315.319C230.464 317.704 231.256 323.623 229.721 324.608C228.185 325.593 243.712 326.095 243.712 326.095C243.712 326.095 261.479 312.693 263.545 308.569" fill="black"/>
<path d="M219.312 394.681C220.924 395.859 226.612 392.962 228.649 393.339C230.686 393.715 240.989 397.027 251.823 397.664C262.657 398.302 272.525 393.705 274.273 393.734C275.055 393.734 279.796 394.632 281.785 393.01C283.774 391.388 281.158 386.589 281.158 386.589C281.158 386.589 287.241 376.315 283.282 365.481C279.12 354.097 265.013 349.066 258.177 340.994C255.907 338.319 254.179 324.579 259.461 317.588C259.635 317.366 259.799 317.134 259.953 316.922C260.301 316.449 260.61 315.956 260.919 315.56L260.977 315.474C264.55 310.066 263.748 308.096 263.748 308.096C262.977 309.397 261.869 310.465 260.542 311.189C259.215 311.912 257.717 312.265 256.207 312.21C250.742 312.21 243.461 309.12 239.917 310.781C236.374 312.442 238.894 319.094 238.17 320.987C237.445 322.88 236.49 322.6 232.569 322.078C228.649 321.557 222.672 325.94 227.992 326.269C233.313 326.597 239.338 336.89 237.281 341.882C236.065 344.837 223.85 351.673 219.65 359.92C213.595 371.825 221.224 386.251 220.76 386.579C220.297 386.908 217.718 393.483 219.312 394.681Z" fill="#FFC727"/>
<path opacity="0.2" d="M219.312 394.681C220.924 395.859 226.612 392.962 228.649 393.339C230.686 393.715 240.989 397.027 251.823 397.664C262.657 398.302 272.525 393.705 274.273 393.734C275.055 393.734 279.796 394.632 281.785 393.01C283.774 391.388 281.158 386.589 281.158 386.589C281.158 386.589 287.241 376.315 283.282 365.481C279.12 354.097 265.013 349.066 258.177 340.994C255.907 338.319 254.179 324.579 259.461 317.588C259.635 317.366 259.799 317.134 259.953 316.922C260.301 316.449 260.61 315.956 260.919 315.56L260.977 315.474C264.55 310.066 263.748 308.096 263.748 308.096C262.977 309.397 261.869 310.465 260.542 311.189C259.215 311.912 257.717 312.265 256.207 312.21C250.742 312.21 243.461 309.12 239.917 310.781C236.374 312.442 238.894 319.094 238.17 320.987C237.445 322.88 236.49 322.6 232.569 322.078C228.649 321.557 222.672 325.94 227.992 326.269C233.313 326.597 239.338 336.89 237.281 341.882C236.065 344.837 223.85 351.673 219.65 359.92C213.595 371.825 221.224 386.251 220.76 386.579C220.297 386.908 217.718 393.483 219.312 394.681Z" fill="black"/>
<path opacity="0.1" d="M272.409 393.985C272.966 394.017 273.524 393.925 274.041 393.715C274.549 393.522 275.032 393.269 275.48 392.962C275.922 392.653 276.33 392.297 276.696 391.9C276.878 391.7 277.049 391.49 277.208 391.272C277.367 391.044 277.509 390.806 277.633 390.558C277.381 390.664 277.136 390.787 276.899 390.925L276.223 391.33C275.779 391.61 275.364 391.9 274.949 392.189L273.693 393.068L272.409 393.985Z" fill="black"/>
<path opacity="0.1" d="M229.48 393.358L228.137 392.508L226.843 391.697C226.409 391.436 225.974 391.166 225.521 390.915C225.289 390.789 225.067 390.664 224.825 390.548C224.58 390.425 224.329 390.316 224.072 390.22C224.21 390.459 224.365 390.688 224.536 390.905C224.703 391.116 224.884 391.316 225.076 391.504C225.467 391.873 225.898 392.197 226.361 392.47C226.822 392.757 227.319 392.984 227.838 393.145C228.363 393.337 228.923 393.41 229.48 393.358Z" fill="black"/>
<g opacity="0.1">
<path d="M254.15 341.786C254.613 342.289 255.128 342.742 255.686 343.138C256.223 343.545 256.788 343.916 257.375 344.248C257.964 344.58 258.574 344.873 259.2 345.127C259.822 345.391 260.469 345.588 261.132 345.716C260.605 345.288 260.054 344.891 259.48 344.528C258.92 344.171 258.351 343.823 257.771 343.505C257.192 343.186 256.603 342.858 256.004 342.539C255.401 342.254 254.782 342.003 254.15 341.786Z" fill="black"/>
<path d="M252.364 341.786C252.467 342.244 252.633 342.686 252.857 343.099C253.076 343.501 253.331 343.883 253.62 344.238C253.903 344.597 254.227 344.921 254.585 345.204C254.957 345.503 255.388 345.72 255.85 345.841C255.58 345.445 255.329 345.088 255.068 344.731C254.807 344.374 254.537 344.026 254.257 343.688C253.977 343.35 253.687 343.022 253.378 342.723C253.07 342.379 252.731 342.066 252.364 341.786Z" fill="black"/>
<path d="M243.886 342.327C243.645 342.974 243.394 343.582 243.113 344.181C242.848 344.775 242.552 345.355 242.225 345.919C241.918 346.492 241.576 347.047 241.202 347.579C240.835 348.13 240.4 348.622 239.995 349.192C240.632 348.907 241.214 348.512 241.713 348.024C242.223 347.542 242.656 346.985 242.998 346.372C243.351 345.77 243.614 345.12 243.78 344.441C243.955 343.75 243.991 343.032 243.886 342.327Z" fill="black"/>
<path d="M234.906 347.802C235.409 347.645 235.887 347.418 236.326 347.126C236.761 346.847 237.166 346.524 237.533 346.16C237.898 345.791 238.222 345.383 238.498 344.943C238.783 344.493 238.977 343.991 239.068 343.466C238.672 343.833 238.324 344.181 237.967 344.519L236.915 345.552C236.557 345.899 236.21 346.247 235.872 346.624C235.523 346.994 235.201 347.387 234.906 347.802Z" fill="black"/>
<path d="M240.96 343.717C240.507 344.296 240.082 344.856 239.657 345.416L238.402 347.097L237.127 348.757C236.702 349.327 236.258 349.868 235.843 350.476C236.485 350.133 237.081 349.711 237.619 349.221C238.156 348.732 238.647 348.195 239.087 347.618C239.523 347.038 239.907 346.421 240.236 345.774C240.57 345.124 240.814 344.432 240.96 343.717Z" fill="black"/>
<path d="M243.934 339.352C243.643 338.63 243.287 337.935 242.872 337.276C242.49 336.656 242.061 336.065 241.588 335.509C241.14 334.997 240.638 334.534 240.091 334.129C239.598 333.755 239.027 333.498 238.421 333.375C238.933 333.81 239.386 334.245 239.879 334.708C240.371 335.171 240.796 335.674 241.24 336.195C242.167 337.219 242.998 338.3 243.934 339.352Z" fill="black"/>
<path d="M250.51 338.416C250.623 337.225 250.836 336.046 251.148 334.892C251.302 334.351 251.466 333.81 251.669 333.298C251.872 332.787 252.103 332.265 252.316 331.705C251.906 332.033 251.562 332.436 251.302 332.893C251.003 333.414 250.772 333.973 250.616 334.554C250.445 335.184 250.348 335.832 250.327 336.485C250.287 337.134 250.349 337.786 250.51 338.416Z" fill="black"/>
<path d="M248.705 339.227C248.927 338.368 249.043 337.566 249.178 336.774L249.4 335.587C249.477 335.201 249.574 334.814 249.67 334.37C249.366 334.629 249.133 334.961 248.994 335.336C248.826 335.736 248.703 336.154 248.627 336.581C248.553 337.028 248.518 337.48 248.521 337.933C248.532 338.37 248.594 338.804 248.705 339.227Z" fill="black"/>
</g>
<path d="M259.847 339.855C258.093 341.323 256.055 342.415 253.86 343.06C247.932 345.098 241.491 345.088 235.331 344.432C233.091 344.19 233.95 340.782 236.171 341.013C241.704 341.612 247.526 341.525 252.837 339.7C254.059 339.296 255.231 338.755 256.332 338.088C256.661 337.895 256.96 337.672 257.298 337.46C257.636 337.248 256.989 337.74 257.298 337.46C258.949 335.925 261.517 338.339 259.857 339.874L259.847 339.855Z" fill="#263238"/>
<path d="M257.616 337.643C256.155 338.888 254.457 339.824 252.624 340.395C247.796 342.133 242.379 342.239 237.281 341.737C235.07 341.515 234.944 338.001 237.185 338.223C241.906 338.696 246.84 338.676 251.34 337.122C252.37 336.781 253.358 336.324 254.285 335.76C254.565 335.587 254.826 335.403 255.096 335.21C255.367 335.017 254.787 335.49 255.096 335.21C256.738 333.665 259.306 336.079 257.645 337.624L257.616 337.643Z" fill="#263238"/>
<path d="M239.966 386.724C248.541 386.724 255.492 379.366 255.492 370.29C255.492 361.214 248.541 353.856 239.966 353.856C231.39 353.856 224.439 361.214 224.439 370.29C224.439 379.366 231.39 386.724 239.966 386.724Z" fill="#FFC727"/>
<g opacity="0.1">
<path d="M239.875 359.201C240.06 359.2 240.239 359.271 240.374 359.399C240.508 359.527 240.589 359.701 240.599 359.886V361.055C242.506 361.139 244.343 361.795 245.871 362.938C245.992 363.005 246.094 363.101 246.168 363.217C246.242 363.333 246.286 363.466 246.296 363.604C246.297 363.701 246.279 363.798 246.243 363.889C246.207 363.98 246.153 364.062 246.085 364.132C246.017 364.202 245.936 364.258 245.846 364.297C245.756 364.335 245.66 364.356 245.562 364.357C245.465 364.365 245.367 364.352 245.275 364.319C245.184 364.285 245.1 364.232 245.031 364.164C243.748 363.159 242.203 362.545 240.58 362.397L240.831 370.585C245.301 371.386 247.223 372.999 247.31 375.867C247.406 378.966 244.867 381.235 241.217 381.467L241.285 383.746C241.296 383.845 241.287 383.945 241.257 384.04C241.227 384.135 241.177 384.222 241.111 384.297C241.045 384.371 240.964 384.431 240.873 384.471C240.782 384.512 240.684 384.533 240.584 384.533C240.485 384.533 240.387 384.512 240.296 384.471C240.205 384.431 240.124 384.371 240.058 384.297C239.992 384.222 239.942 384.135 239.912 384.04C239.882 383.945 239.873 383.845 239.884 383.746L239.817 381.438C237.36 381.334 235.009 380.406 233.145 378.802C233.044 378.735 232.961 378.645 232.902 378.539C232.843 378.433 232.811 378.315 232.807 378.194C232.811 378.003 232.885 377.821 233.015 377.682C233.145 377.543 233.322 377.457 233.512 377.441C233.71 377.435 233.903 377.504 234.052 377.634C235.64 379.104 237.686 379.984 239.846 380.125L239.595 371.792C235.182 370.952 233.318 369.397 233.232 366.481C233.145 363.565 235.645 361.19 239.218 360.997V359.886C239.225 359.711 239.295 359.545 239.416 359.419C239.537 359.292 239.7 359.215 239.875 359.201ZM239.566 370.334L239.324 362.348C236.486 362.493 234.67 364.28 234.728 366.356C234.786 368.432 235.761 369.523 239.566 370.315V370.334ZM240.908 372.082L241.149 380.154C244.046 380.009 245.919 378.223 245.852 376.031C245.794 373.993 244.732 372.796 240.908 372.062V372.082Z" fill="black"/>
</g>
</g>
<defs>
<linearGradient id="paint0_linear_304_1352" x1="448.204" y1="302.991" x2="477.144" y2="254.263" gradientUnits="userSpaceOnUse">
<stop stop-color="#5EC8F8"/>
<stop offset="1" stop-color="#04599C"/>
</linearGradient>
<linearGradient id="paint1_linear_304_1352" x1="391.526" y1="308.663" x2="415.777" y2="267.147" gradientUnits="userSpaceOnUse">
<stop stop-color="#5EC8F8"/>
<stop offset="1" stop-color="#04599C"/>
</linearGradient>
<linearGradient id="paint2_linear_304_1352" x1="442.781" y1="334.007" x2="460.194" y2="301.288" gradientUnits="userSpaceOnUse">
<stop stop-color="#5EC8F8"/>
<stop offset="1" stop-color="#04599C"/>
</linearGradient>
<clipPath id="clip0_304_1352">
<rect width="533" height="405" fill="white" transform="matrix(-1 0 0 1 533 0)"/>
</clipPath>
</defs>
</svg>
