<svg width="101" height="100" viewBox="0 0 101 100" fill="none" xmlns="http://www.w3.org/2000/svg">
<path d="M25.3826 29.3233H75.6174V62.406H83.9899V27.2556C83.9899 23.8478 81.1642 21.0526 77.7105 21.0526H23.2895C19.8398 21.0526 17.0101 23.8478 17.0101 27.2556V62.406H25.3826V29.3233ZM90.2692 66.5413H10.7308C9.58611 66.5413 8.63766 67.4847 8.63766 68.609V70.6767C8.63766 75.232 12.3987 78.9473 17.0101 78.9473H83.9899C88.6013 78.9473 92.3623 75.232 92.3623 70.6767V68.609C92.3623 67.4847 91.4204 66.5413 90.2692 66.5413ZM56.5046 53.9027C57.0148 54.4067 57.682 54.6522 58.3492 54.6522C59.0164 54.6522 59.6875 54.4018 60.199 53.897L66.4783 47.694C67.5003 46.6843 67.5003 45.0448 66.4783 44.0355L60.199 37.8325C59.177 36.8228 57.5211 36.8228 56.4994 37.8325C55.4774 38.8422 55.4774 40.4817 56.4994 41.491L60.929 45.8641L56.4994 50.2372C55.4712 51.2535 55.4712 52.8947 56.5046 53.9027ZM44.4954 37.8395C43.4734 36.8298 41.8175 36.8298 40.7958 37.8395L34.5164 44.0425C33.4945 45.0522 33.4945 46.6917 34.5164 47.701L40.7958 53.904C41.3165 54.4067 41.9836 54.6522 42.6508 54.6522C43.318 54.6522 43.9891 54.4018 44.5006 53.897C45.5226 52.8873 45.5226 51.2478 44.5006 50.2385L40.0737 45.8646L44.5032 41.4915C45.4111 40.4887 45.4111 38.8475 44.4954 37.8395V37.8395Z" fill="url(#paint0_linear_130_265)"/>
<defs>
<linearGradient id="paint0_linear_130_265" x1="72.8709" y1="73.893" x2="49.8204" y2="13.6814" gradientUnits="userSpaceOnUse">
<stop stop-color="#5EC8F8"/>
<stop offset="1" stop-color="#04599C"/>
</linearGradient>
</defs>
</svg>
