<svg width="101" height="100" viewBox="0 0 101 100" fill="none" xmlns="http://www.w3.org/2000/svg">
<path d="M55.4671 81.6C55.4671 80.2422 54.9808 79.0798 54.008 78.1129C53.0353 77.146 51.866 76.6625 50.5 76.6625C49.134 76.6625 47.9647 77.146 46.9919 78.1129C46.0192 79.0798 45.5328 80.2422 45.5328 81.6C45.5328 82.9578 46.0192 84.1202 46.9919 85.0871C47.9647 86.054 49.134 86.5375 50.5 86.5375C51.866 86.5375 53.0353 86.054 54.008 85.0871C54.9808 84.1202 55.4671 82.9578 55.4671 81.6ZM68.3818 71.725V28.275C68.3818 27.7401 68.1851 27.2772 67.7919 26.8863C67.3987 26.4954 66.933 26.3 66.3949 26.3H34.6051C34.067 26.3 33.6013 26.4954 33.2081 26.8863C32.8149 27.2772 32.6182 27.7401 32.6182 28.275V71.725C32.6182 72.2599 32.8149 72.7228 33.2081 73.1137C33.6013 73.5046 34.067 73.7 34.6051 73.7H66.3949C66.933 73.7 67.3987 73.5046 67.7919 73.1137C68.1851 72.7228 68.3818 72.2599 68.3818 71.725ZM56.4606 19.3875C56.4606 18.7292 56.1294 18.4 55.4671 18.4H45.5328C44.8706 18.4 44.5394 18.7292 44.5394 19.3875C44.5394 20.0458 44.8706 20.375 45.5328 20.375H55.4671C56.1294 20.375 56.4606 20.0458 56.4606 19.3875ZM74.3423 18.4V81.6C74.3423 83.7396 73.5559 85.5911 71.9829 87.1547C70.41 88.7182 68.5473 89.5 66.3949 89.5H34.6051C32.4527 89.5 30.59 88.7182 29.0171 87.1547C27.4441 85.5911 26.6577 83.7396 26.6577 81.6V18.4C26.6577 16.2604 27.4441 14.4089 29.0171 12.8453C30.59 11.2818 32.4527 10.5 34.6051 10.5H66.3949C68.5473 10.5 70.41 11.2818 71.9829 12.8453C73.5559 14.4089 74.3423 16.2604 74.3423 18.4Z" fill="url(#paint0_linear_130_309)"/>
<defs>
<linearGradient id="paint0_linear_130_309" x1="63.2411" y1="82.6032" x2="16.3152" y2="31.4408" gradientUnits="userSpaceOnUse">
<stop stop-color="#5EC8F8"/>
<stop offset="1" stop-color="#04599C"/>
</linearGradient>
</defs>
</svg>
