<svg width="72" height="72" viewBox="0 0 72 72" fill="none" xmlns="http://www.w3.org/2000/svg">
<path fill-rule="evenodd" clip-rule="evenodd" d="M58.392 50.2419C62.1504 36.2163 53.2512 21.7299 38.6316 17.8131C22.122 13.3851 -1.31036 24.8835 3.90244 39.6327C5.63044 44.5107 8.95684 45.6519 15.2316 45.7419L15.624 45.7491C18.9396 45.7887 19.872 46.0047 20.1528 46.4583C20.61 47.2071 20.6172 48.3987 20.1024 51.6783C19.8576 53.2263 19.7784 53.7663 19.6848 54.6123C19.1124 59.7639 19.9836 63.7815 23.3568 67.4175C33.8976 78.7683 54.1476 66.0747 58.392 50.2419ZM10.692 37.2279C8.06764 29.8119 24.8616 21.5715 36.7668 24.7611C47.628 27.6735 54.1404 38.2755 51.4368 48.3735C48.42 59.6343 34.2216 68.5335 28.6344 62.5143C26.9064 60.6567 26.478 58.6695 26.8416 55.4043C26.9172 54.7059 26.9892 54.2235 27.216 52.7907C28.0044 47.7615 27.9936 45.4647 26.2872 42.6891C24.1488 39.2079 21.6072 38.6211 15.714 38.5455L15.3324 38.5383C11.862 38.4915 11.0376 38.2071 10.6884 37.2279H10.692Z" fill="url(#paint0_linear_304_1564)"/>
<path d="M21.6001 36.0002C20.4066 36.0002 19.262 35.5261 18.4181 34.6822C17.5742 33.8383 17.1001 32.6937 17.1001 31.5002C17.1001 30.3068 17.5742 29.1622 18.4181 28.3183C19.262 27.4743 20.4066 27.0002 21.6001 27.0002C22.7936 27.0002 23.9382 27.4743 24.7821 28.3183C25.626 29.1622 26.1001 30.3068 26.1001 31.5002C26.1001 32.6937 25.626 33.8383 24.7821 34.6822C23.9382 35.5261 22.7936 36.0002 21.6001 36.0002ZM35.1001 36.0002C33.9066 36.0002 32.762 35.5261 31.9181 34.6822C31.0742 33.8383 30.6001 32.6937 30.6001 31.5002C30.6001 30.3068 31.0742 29.1622 31.9181 28.3183C32.762 27.4743 33.9066 27.0002 35.1001 27.0002C36.2936 27.0002 37.4382 27.4743 38.2821 28.3183C39.126 29.1622 39.6001 30.3068 39.6001 31.5002C39.6001 32.6937 39.126 33.8383 38.2821 34.6822C37.4382 35.5261 36.2936 36.0002 35.1001 36.0002ZM44.1001 46.8002C42.9066 46.8002 41.762 46.3261 40.9181 45.4822C40.0742 44.6383 39.6001 43.4937 39.6001 42.3002C39.6001 41.1068 40.0742 39.9622 40.9181 39.1183C41.762 38.2743 42.9066 37.8002 44.1001 37.8002C45.2936 37.8002 46.4382 38.2743 47.2821 39.1183C48.126 39.9622 48.6001 41.1068 48.6001 42.3002C48.6001 43.4937 48.126 44.6383 47.2821 45.4822C46.4382 46.3261 45.2936 46.8002 44.1001 46.8002ZM38.7001 59.4002C37.5066 59.4002 36.362 58.9261 35.5181 58.0822C34.6742 57.2383 34.2001 56.0937 34.2001 54.9002C34.2001 53.7068 34.6742 52.5622 35.5181 51.7183C36.362 50.8744 37.5066 50.4002 38.7001 50.4002C39.8936 50.4002 41.0382 50.8744 41.8821 51.7183C42.726 52.5622 43.2001 53.7068 43.2001 54.9002C43.2001 56.0937 42.726 57.2383 41.8821 58.0822C41.0382 58.9261 39.8936 59.4002 38.7001 59.4002ZM51.7321 12.9782C52.159 12.7496 52.6276 12.6093 53.1099 12.566C53.5922 12.5226 54.0783 12.577 54.5391 12.7259C54.9999 12.8748 55.4259 13.1151 55.7917 13.4325C56.1574 13.7499 56.4554 14.1378 56.6677 14.573L71.4025 44.813C71.6485 45.3566 71.6783 45.9735 71.4858 46.5382C71.2933 47.1029 70.893 47.5732 70.3662 47.8533C69.8394 48.1334 69.2257 48.2024 68.6498 48.0463C68.074 47.8901 67.5792 47.5205 67.2661 47.0126L50.3173 17.9606C50.0737 17.5427 49.9169 17.0799 49.8565 16.5999C49.7961 16.1199 49.8332 15.6327 49.9657 15.1674C50.0981 14.7022 50.3232 14.2684 50.6273 13.8923C50.9315 13.5161 51.3085 13.2052 51.7357 12.9782H51.7321Z" fill="url(#paint1_linear_304_1564)"/>
<path fill-rule="evenodd" clip-rule="evenodd" d="M45.1334 12.5425C46.8866 15.8365 49.835 16.7581 52.6862 15.2425C55.5338 13.7305 56.423 10.7677 54.6698 7.47365C52.6682 3.70085 48.377 0.280853 45.533 1.78925C42.689 3.30125 43.1282 8.76965 45.137 12.5425H45.1334ZM48.3122 10.8505C47.6747 9.57043 47.2839 8.18185 47.1602 6.75725C47.1066 6.1617 47.1284 5.56176 47.225 4.97165L47.2898 5.00405C47.4698 5.09045 48.0278 5.34965 48.7406 5.91845C49.8278 6.78605 50.9078 8.06405 51.491 9.16205C52.3154 10.7101 52.0814 11.4877 50.9942 12.0673C49.9142 12.6433 49.1366 12.3985 48.3122 10.8541V10.8505Z" fill="url(#paint2_linear_304_1564)"/>
<defs>
<linearGradient id="paint0_linear_304_1564" x1="46.1949" y1="66.9712" x2="18.7636" y2="16.3586" gradientUnits="userSpaceOnUse">
<stop stop-color="#5EC8F8"/>
<stop offset="1" stop-color="#04599C"/>
</linearGradient>
<linearGradient id="paint1_linear_304_1564" x1="58.9209" y1="55.3103" x2="37.2472" y2="9.75838" gradientUnits="userSpaceOnUse">
<stop stop-color="#5EC8F8"/>
<stop offset="1" stop-color="#04599C"/>
</linearGradient>
<linearGradient id="paint2_linear_304_1564" x1="52.7628" y1="14.6831" x2="44.7654" y2="2.6967" gradientUnits="userSpaceOnUse">
<stop stop-color="#5EC8F8"/>
<stop offset="1" stop-color="#04599C"/>
</linearGradient>
</defs>
</svg>
