<svg width="72" height="72" viewBox="0 0 72 72" fill="none" xmlns="http://www.w3.org/2000/svg">
<path d="M28.5748 52.6219C27.0561 57.2344 23.3998 60.6094 18.0279 62.4094C15.6116 63.207 13.0906 63.643 10.5467 63.7032C9.94995 63.7032 9.37766 63.4661 8.9557 63.0442C8.53374 62.6222 8.29669 62.0499 8.29669 61.4532C8.35692 58.9093 8.79289 56.3883 9.59044 53.9719C11.3904 48.6001 14.7654 44.9438 19.3779 43.4251C19.6638 43.2996 19.9726 43.2349 20.2847 43.2352C20.5969 43.2355 20.9055 43.3007 21.1911 43.4268C21.4767 43.5528 21.7329 43.7369 21.9435 43.9673C22.1541 44.1978 22.3144 44.4695 22.4143 44.7652C22.5142 45.061 22.5514 45.3742 22.5237 45.6852C22.496 45.9961 22.4038 46.2978 22.2531 46.5712C22.1025 46.8446 21.8966 47.0836 21.6485 47.2731C21.4005 47.4626 21.1157 47.5985 20.8123 47.6719C15.2717 49.5282 13.5561 55.5188 13.0217 58.9782C16.4811 58.4438 22.4717 56.7282 24.3279 51.1876C24.5541 50.6726 24.965 50.2609 25.4795 50.0338C25.9941 49.8067 26.5751 49.7805 27.108 49.9605C27.6409 50.1405 28.0871 50.5136 28.3586 51.0062C28.6301 51.4988 28.7072 52.0753 28.5748 52.6219ZM56.6717 31.2188L54.1686 33.7501V50.9907C54.1604 52.1822 53.6859 53.323 52.8467 54.1688L43.7342 63.2532C43.3209 63.6764 42.8263 64.0116 42.2802 64.2388C41.734 64.466 41.1476 64.5804 40.5561 64.5751C40.1171 64.5785 39.6804 64.5121 39.2623 64.3782C38.4794 64.1437 37.7752 63.7004 37.2252 63.0958C36.6752 62.4913 36.3002 61.7485 36.1404 60.9469L33.9186 49.8376L22.1623 38.0813L11.0529 35.8594C10.2514 35.6997 9.50855 35.3247 8.90404 34.7747C8.29953 34.2247 7.85622 33.5205 7.62169 32.7376C7.38531 31.9603 7.36514 31.1333 7.56335 30.3454C7.76156 29.5576 8.17065 28.8386 8.74669 28.2657L17.8311 19.1532C18.6769 18.314 19.8177 17.8394 21.0092 17.8313H38.2498L40.7811 15.3282C48.8248 7.28445 57.0654 7.50945 60.2436 7.98757C61.1965 8.11943 62.0804 8.55892 62.7607 9.23921C63.441 9.91949 63.8805 10.8033 64.0123 11.7563C64.4904 14.9344 64.7154 23.1751 56.6717 31.2188ZM11.9248 31.4438L22.5279 33.5532L33.7498 22.3313H21.0092L11.9248 31.4438ZM26.4654 36.0001L35.9998 45.5344L53.4936 28.0407C55.6873 25.8469 60.6936 19.9407 59.5686 12.4313C52.0592 11.3063 46.1529 16.3126 43.9592 18.5063L26.4654 36.0001ZM49.6686 38.2501L38.4467 49.4719L40.5561 60.0751L49.6686 50.9907V38.2501Z" fill="url(#paint0_linear_304_1580)"/>
<defs>
<linearGradient id="paint0_linear_304_1580" x1="50.9878" y1="59.6181" x2="22.2958" y2="7.79548" gradientUnits="userSpaceOnUse">
<stop stop-color="#5EC8F8"/>
<stop offset="1" stop-color="#04599C"/>
</linearGradient>
</defs>
</svg>
