<svg width="101" height="100" viewBox="0 0 101 100" fill="none" xmlns="http://www.w3.org/2000/svg">
<path d="M66.9572 48.0954L73.0528 41.9997L58.4933 27.4402L52.3977 33.5358L36.3239 17.5008C33.2955 14.4725 28.3647 14.4725 25.3363 17.5008L17.9594 24.8777C14.931 27.9061 14.931 32.8369 17.9594 35.8653L33.9944 51.9003L15.5522 70.3812V84.9408H30.1118L48.5928 66.4598L64.6277 82.4948C68.3161 86.1832 73.2858 84.8243 75.6153 82.4948L82.9922 75.1179C86.0206 72.0895 86.0206 67.1587 82.9922 64.1303L66.9572 48.0954V48.0954ZM39.5464 46.387L23.4727 30.3521L30.8107 22.9752L35.7415 27.9061L31.1601 32.5263L36.6345 38.0007L41.2547 33.3805L46.8844 39.0102L39.5464 46.387V46.387ZM70.1409 77.0204L54.106 60.9854L61.4828 53.6086L67.1125 59.2383L62.4923 63.8585L67.9667 69.3329L72.5869 64.7127L77.5178 69.6435L70.1409 77.0204V77.0204ZM84.3122 30.7403C84.6722 30.3812 84.9577 29.9545 85.1526 29.4848C85.3474 29.0151 85.4477 28.5116 85.4477 28.0031C85.4477 27.4947 85.3474 26.9912 85.1526 26.5215C84.9577 26.0518 84.6722 25.6251 84.3122 25.2659L75.2271 16.1808C73.4023 14.356 70.8786 15.0548 69.7527 16.1808L62.6476 23.2858L77.2072 37.8454L84.3122 30.7403V30.7403Z" fill="url(#paint0_linear_142_249)"/>
<defs>
<linearGradient id="paint0_linear_142_249" x1="69.1757" y1="78.84" x2="33.8689" y2="15.0532" gradientUnits="userSpaceOnUse">
<stop stop-color="#5EC8F8"/>
<stop offset="1" stop-color="#04599C"/>
</linearGradient>
</defs>
</svg>
