<svg width="25" height="24" viewBox="0 0 25 24" fill="none" xmlns="http://www.w3.org/2000/svg">
<path d="M12.497 7.9983C10.2935 7.9983 8.49529 9.79651 8.49529 12C8.49529 14.2035 10.2935 16.0017 12.497 16.0017C14.7005 16.0017 16.4987 14.2035 16.4987 12C16.4987 9.79651 14.7005 7.9983 12.497 7.9983ZM24.4991 12C24.4991 10.3429 24.5141 8.70077 24.4211 7.04665C24.328 5.12536 23.8897 3.4202 22.4847 2.01525C21.0768 0.607302 19.3746 0.172008 17.4533 0.0789456C15.7962 -0.0141173 14.1541 0.000892936 12.5 0.000892936C10.8429 0.000892936 9.20077 -0.0141173 7.54665 0.0789456C5.62536 0.172008 3.9202 0.610305 2.51525 2.01525C1.1073 3.42321 0.672008 5.12536 0.578946 7.04665C0.485883 8.70377 0.500893 10.3459 0.500893 12C0.500893 13.6541 0.485883 15.2992 0.578946 16.9533C0.672008 18.8746 1.1103 20.5798 2.51525 21.9847C3.92321 23.3927 5.62536 23.828 7.54665 23.9211C9.20377 24.0141 10.8459 23.9991 12.5 23.9991C14.1571 23.9991 15.7992 24.0141 17.4533 23.9211C19.3746 23.828 21.0798 23.3897 22.4847 21.9847C23.8927 20.5768 24.328 18.8746 24.4211 16.9533C24.5171 15.2992 24.4991 13.6571 24.4991 12ZM12.497 18.1572C9.08969 18.1572 6.33984 15.4073 6.33984 12C6.33984 8.5927 9.08969 5.84284 12.497 5.84284C15.9043 5.84284 18.6542 8.5927 18.6542 12C18.6542 15.4073 15.9043 18.1572 12.497 18.1572ZM18.9063 7.02864C18.1108 7.02864 17.4684 6.38621 17.4684 5.59067C17.4684 4.79513 18.1108 4.1527 18.9063 4.1527C19.7019 4.1527 20.3443 4.79513 20.3443 5.59067C20.3445 5.77957 20.3075 5.96667 20.2353 6.14124C20.1631 6.31581 20.0572 6.47442 19.9237 6.608C19.7901 6.74157 19.6315 6.84748 19.4569 6.91967C19.2823 6.99185 19.0952 7.02888 18.9063 7.02864Z" fill="#F2F4F7"/>
</svg>
